# Blender 4.4.3
# www.blender.org
mtllib monticulo-13-Plane003.mtl
o Plane.003
v -9.435410 3.000000 -4.333684
v -9.435410 3.000000 4.333684
v 9.435410 3.000000 4.333684
v 9.435410 3.000000 -4.333684
v -9.435410 5.400000 -4.333684
v -9.435410 5.400001 4.333683
v 9.435410 5.400001 4.333683
v 9.435410 5.400000 -4.333684
v 1.023350 3.000000 4.333684
v -1.023350 3.000000 4.333684
v -1.023350 5.400001 4.333683
v 1.023350 5.400001 4.333683
vn -0.0000 -0.0000 -1.0000
vn -1.0000 -0.0000 -0.0000
vn -0.0000 -0.0000 1.0000
vn 1.0000 -0.0000 -0.0000
vt 0.000000 0.000000
vt 1.000000 0.000000
vt 1.000000 1.000000
vt 0.000000 1.000000
s 1
usemtl Material.005
f 4/1/1 1/2/1 5/3/1 8/4/1
f 1/1/2 2/2/2 6/3/2 5/4/2
f 2/1/3 10/2/3 11/3/3 6/4/3
f 3/1/4 4/2/4 8/3/4 7/4/4
f 9/1/3 3/2/3 7/3/3 12/4/3
