# Blender 4.4.3
# www.blender.org
mtllib monticulo-13-Plane.mtl
o Plane
v -20.000000 0.000001 10.000000
v 20.000000 0.000001 10.000000
v -20.000000 -0.000001 -10.000000
v 20.000000 -0.000001 -10.000000
v -20.000000 2.000001 10.000000
v 20.000000 2.000001 10.000000
v -20.000000 1.999999 -10.000000
v 20.000000 1.999999 -10.000000
v -3.042740 0.000001 10.000000
v 3.042740 0.000001 10.000000
v 3.042740 -0.000001 -10.000000
v -3.042740 -0.000001 -10.000000
v -3.042740 2.000001 10.000000
v 3.042740 2.000001 10.000000
v 3.042740 1.999999 -10.000000
v -3.042740 1.999999 -10.000000
v -3.042740 0.000001 8.734406
v -3.042740 2.000001 8.734406
v 3.042740 0.000001 9.083394
v 3.042740 1.999999 -7.482019
v -3.042740 1.999999 -7.482019
v 3.042740 0.000001 8.691298
v 3.042740 2.000001 8.691298
vn -0.0000 -0.0000 -1.0000
vn 1.0000 -0.0000 -0.0000
vn -1.0000 -0.0000 -0.0000
vn -0.0000 1.0000 -0.0000
vn -0.0000 -0.0000 1.0000
vt 0.000000 0.000000
vt 1.000000 0.000000
vt 1.000000 1.000000
vt 0.000000 1.000000
vt 0.423932 0.000000
vt 0.423932 1.000000
vt 0.576069 1.000000
vt 0.576069 0.000000
s 1
usemtl Material.001
f 12/1/1 3/2/1 7/3/1 16/4/1
f 4/1/1 11/2/1 15/3/1 8/4/1
f 2/1/2 4/2/2 8/3/2 6/4/2
f 3/1/3 1/2/3 5/3/3 7/4/3
f 7/4/4 5/1/4 13/5/4 16/6/4
f 16/1/1 15/2/1 11/3/1 12/4/1
f 1/1/5 9/2/5 13/3/5 5/4/5
f 10/1/5 2/2/5 6/3/5 14/4/5
f 13/1/2 9/2/2 17/3/2 18/4/2
f 8/3/4 15/7/4 14/8/4 6/2/4
f 15/1/4 16/2/4 21/3/4 20/4/4
f 10/1/3 14/2/3 23/3/3 22/4/3
l 10 19
