# Blender 4.4.3
# www.blender.org
mtllib Untitled.mtl
o ArrowTriangular
v 0.043528 0.119593 -0.564302
v 0.043528 0.119593 0.564302
v -2.237696 0.949890 0.564302
v -2.237696 0.949890 -0.564302
v -0.043528 -0.119593 -0.564302
v -0.043528 -0.119593 0.564302
v -2.324752 0.710706 0.564302
v -2.324752 0.710706 -0.564302
v -2.237696 0.949890 -0.783752
v -2.237696 0.949890 0.783752
v -3.704197 1.483653 -0.000000
v -2.324752 0.710706 -0.783752
v -2.324752 0.710706 0.783752
v -3.791253 1.244469 -0.000000
vn -0.3420 -0.9397 -0.0000
vn 0.3420 0.9397 -0.0000
vn -0.9397 0.3420 -0.0000
vn -0.0000 -0.0000 -1.0000
vn 0.9397 -0.3420 -0.0000
vn -0.0000 -0.0000 1.0000
vn -0.4217 0.1535 -0.8936
vn 0.4217 -0.1535 -0.8936
vt 0.240000 0.516241
vt 0.000000 0.516241
vt 0.000000 0.000000
vt 0.240000 0.000000
vt 0.240000 0.516241
vt 0.240000 0.000000
vt 0.480000 0.000000
vt 0.480000 0.516241
vt 0.865997 0.756241
vt 0.811870 0.756241
vt 0.811870 0.516241
vt 0.865997 0.516241
vt 0.811870 0.000000
vt 0.865997 0.000000
vt 0.440124 0.802907
vt 0.385996 0.802907
vt 0.385996 0.562907
vt 0.440124 0.562907
vt 0.865997 0.000000
vt 0.920125 0.000000
vt 0.920125 0.516241
vt 0.865997 0.516241
vt 0.480000 0.046667
vt 0.480000 0.000000
vt 0.811869 0.166667
vt 0.480000 0.666667
vt 0.480000 0.333333
vt 0.811869 0.500000
vt 0.480000 0.333333
vt 0.480000 0.286667
vt 0.000000 0.802907
vt 0.331869 0.682907
vt 0.000000 0.849574
vt 0.480000 0.666667
vt 0.811869 0.833333
vt 0.480000 1.000000
vt -0.000000 0.516241
vt -0.000000 0.562907
vt 0.385996 0.516241
vt 0.440124 0.516241
vt 0.385996 0.848110
vt 0.331869 0.848110
vt 0.331869 0.516241
vt 0.385996 0.516241
vt 0.385996 0.857035
vt 0.385996 0.802907
vt 0.432663 0.802907
vt 0.432663 0.857035
s 1
usemtl ArrowBlue.001
f 1/1/1 2/2/1 3/3/1
f 1/1/1 3/3/1 4/4/1
f 5/5/2 8/6/2 7/7/2
f 5/5/2 7/7/2 6/8/2
f 1/9/3 5/10/3 6/11/3
f 1/9/3 6/11/3 2/12/3
f 2/12/4 6/11/4 7/13/4
f 2/12/4 7/13/4 3/14/4
f 3/15/5 7/16/5 8/17/5
f 3/15/5 8/17/5 4/18/5
f 4/19/6 8/20/6 5/21/6
f 4/19/6 5/21/6 1/22/6
f 4/23/2 9/24/2 11/25/2
f 9/26/1 10/27/1 11/28/1
f 10/29/2 3/30/2 11/25/2
f 3/30/2 4/23/2 11/25/2
f 8/31/1 14/32/1 12/33/1
f 12/34/2 14/35/2 13/36/2
f 13/37/1 14/32/1 7/38/1
f 7/38/1 14/32/1 8/31/1
f 4/18/5 8/17/5 12/39/5
f 4/18/5 12/39/5 9/40/5
f 9/41/7 12/42/7 14/43/7
f 9/41/7 14/43/7 11/44/7
f 10/41/8 13/42/8 14/43/8
f 10/41/8 14/43/8 11/44/8
f 3/45/3 7/46/3 13/47/3
f 3/45/3 13/47/3 10/48/3
