# Blender 4.4.3
# www.blender.org
mtllib monticulo-7-Plane001.mtl
o Plane.001
v 8.589051 1.400000 6.236396
v 8.589051 1.399999 -6.236396
v -8.589051 1.399999 -6.236396
v -8.589051 1.400000 6.236396
v 8.589051 3.200000 -6.236396
v 8.589051 3.200001 6.236395
v -8.589051 3.200001 6.236395
v -8.589051 3.200000 -6.236396
v 8.589051 2.929834 6.236396
v 8.589051 1.670166 6.236396
v -8.589051 1.670166 6.236396
v -8.589051 2.929834 6.236396
v -8.589051 1.670166 -6.236396
v -8.589051 2.929833 -6.236396
v 8.589051 1.670166 -6.236396
v 8.589051 2.929833 -6.236396
v 8.164611 3.200001 6.236395
v -8.164611 3.200001 6.236395
v -8.164611 3.200000 -6.236396
v 8.164611 3.200000 -6.236396
v 8.164611 1.400000 6.236396
v -8.164611 1.400000 6.236396
v -8.164611 1.399999 -6.236396
v 8.164611 1.399999 -6.236396
v 8.164611 2.929833 -6.236396
v -8.164611 2.929833 -6.236396
v 8.164611 1.670166 -6.236396
v -8.164611 1.670166 -6.236396
v -8.164611 2.929834 6.236396
v 8.164611 2.929834 6.236396
v -8.164611 1.670166 6.236396
v 8.164611 1.670166 6.236396
v 3.015645 1.399999 -6.236396
v -3.015645 1.399999 -6.236396
v 3.015645 1.400000 6.236396
v -3.015645 1.400000 6.236396
v -3.015645 1.670166 6.236396
v 3.015645 1.670166 6.236396
v -3.015645 1.670166 -6.236396
v 3.015645 1.670166 -6.236396
v -3.015645 3.200001 6.236395
v 3.015645 3.200001 6.236395
v 3.015645 2.929834 6.236396
v -3.015645 2.929834 6.236396
v -3.015645 3.200000 -6.236396
v 3.015645 3.200000 -6.236396
v 3.015645 2.929833 -6.236396
v -3.015645 2.929833 -6.236396
v -8.164611 2.929834 6.086397
v -8.164611 1.670166 6.086397
v -3.015645 1.670166 6.086397
v -3.015645 2.929834 6.086397
v 8.164611 2.929834 6.086397
v 8.164611 1.670166 6.086397
v 3.015645 1.670166 6.086397
v 3.015645 2.929834 6.086397
v 8.589051 1.670166 -5.806149
v 8.589051 1.670166 5.806149
v 8.589051 2.929833 -5.806149
v 8.589051 2.929834 5.806149
v 8.589051 1.399999 -5.806149
v 8.589051 1.400000 5.806149
v -8.589051 1.400000 5.806149
v -8.589051 1.399999 -5.806149
v 8.589051 3.200000 -5.806149
v 8.589051 3.200001 5.806149
v -8.589051 3.200000 -5.806149
v -8.589051 3.200001 5.806149
v 8.589051 2.929834 5.806149
v 8.589051 2.929833 -5.806149
v 8.589051 1.670166 5.806149
v 8.589051 1.670166 -5.806149
v -8.589051 2.929834 5.806149
v -8.589051 2.929833 -5.806149
v -8.589051 1.670166 -5.806149
v -8.589051 1.670166 5.806149
v -8.164611 1.400000 5.806149
v -8.164611 1.399999 -5.806149
v 8.164611 1.399999 -5.806149
v 8.164611 1.400000 5.806149
v -8.164611 3.200000 -5.806149
v -8.164611 3.200001 5.806149
v 8.164611 3.200001 5.806149
v 8.164611 3.200000 -5.806149
v 3.015645 1.399999 -5.806149
v 3.015645 1.400000 5.806149
v -3.015645 1.400000 5.806149
v -3.015645 1.399999 -5.806149
v 3.015645 3.200001 5.806149
v 3.015645 3.200000 -5.806149
v -3.015645 3.200000 -5.806149
v -3.015645 3.200001 5.806149
v 8.439051 1.670166 -5.806149
v 8.439051 1.670166 5.806149
v 8.439051 2.929833 -5.806149
v 8.439051 2.929834 5.806149
v -8.439051 2.929834 5.806149
v -8.439051 2.929833 -5.806149
v -8.439051 1.670166 -5.806149
v -8.439051 1.670166 5.806149
v 8.164611 2.929833 -6.086397
v -8.164611 2.929833 -6.086397
v 8.164611 1.670166 -6.086397
v -8.164611 1.670166 -6.086397
v -3.015645 1.670166 -6.086397
v 3.015645 1.670166 -6.086397
v 3.015645 2.929833 -6.086397
v -3.015645 2.929833 -6.086397
v 3.015645 3.200001 5.806149
v 3.015645 3.200000 -5.806149
v -3.015645 3.200000 -5.806149
v -3.015645 3.200001 5.806149
vn -0.0000 -1.0000 -0.0000
vn -0.0000 -0.0000 -1.0000
vn -0.0000 -0.0000 1.0000
vn 1.0000 -0.0000 -0.0000
vn -1.0000 -0.0000 -0.0000
vn -0.0000 1.0000 -0.0000
vn -0.0000 -0.0000 -0.0000
vt 0.000000 0.000000
vt 0.034495 0.000000
vt 0.034495 0.024708
vt 0.000000 0.024708
vt 0.000000 0.849908
vt 0.024708 0.849908
vt 0.024708 1.000000
vt 0.000000 1.000000
vt 1.000000 0.849908
vt 0.975292 0.849908
vt 0.975292 0.150092
vt 1.000000 0.150092
vt 0.000000 0.150092
vt 0.024708 0.150092
vt 0.965505 0.000000
vt 1.000000 0.000000
vt 0.965505 0.150092
vt 0.975292 0.000000
vt 0.965505 0.975292
vt 1.000000 0.975292
vt 1.000000 1.000000
vt 0.965505 1.000000
vt 0.024708 0.000000
vt 0.034495 0.849908
vt 0.034495 0.150092
vt 0.034495 1.000000
vt 0.965505 0.849908
vt 0.975292 1.000000
vt 0.675552 1.000000
vt 0.675552 0.849908
vt 0.000000 0.965505
vt 0.024708 0.965505
vt 1.000000 0.034495
vt 0.975292 0.034495
vt 0.675552 0.034495
vt 0.675552 0.000000
vt 0.965505 0.324448
vt 1.000000 0.324448
vt 1.000000 0.675552
vt 0.965505 0.675552
vt 0.324448 0.000000
vt 0.324448 0.150092
vt 0.975292 0.965505
vt 0.675552 0.965505
vt 0.675552 0.150092
vt 0.324448 0.849908
vt 0.324448 1.000000
vt 0.000000 0.324448
vt 0.034495 0.324448
vt 0.034495 0.675552
vt 0.000000 0.675552
vt 0.324448 0.965505
vt 0.324448 0.034495
vt 0.965505 0.024708
vt 1.000000 0.024708
vt 0.024708 0.034495
vt 0.000000 0.034495
vt 0.034495 0.975292
vt 0.000000 0.975292
vt 1.000000 0.965505
s 1
usemtl Material.001
f 2/1/1 61/2/1 79/3/1 24/4/1
f 16/5/2 25/6/2 20/7/2 5/8/2
f 14/9/2 26/10/2 28/11/2 13/12/2
f 29/6/3 12/5/3 11/13/3 31/14/3
f 61/15/4 2/16/4 15/12/4 72/17/4
f 21/18/3 1/16/3 10/12/3 32/11/3
f 77/19/1 22/20/1 4/21/1 63/22/1
f 4/1/3 22/23/3 31/14/3 11/13/3
f 69/24/4 9/5/4 10/13/4 71/25/4
f 14/5/5 74/24/5 67/26/5 8/8/5
f 16/9/4 70/27/4 72/17/4 15/12/4
f 9/9/3 30/10/3 32/11/3 10/12/3
f 12/9/5 73/27/5 76/17/5 11/12/5
f 26/10/2 19/28/2 45/29/2 48/30/2
f 66/31/6 83/32/6 17/7/6 6/8/6
f 25/6/2 16/5/2 15/13/2 27/14/2
f 30/10/3 9/9/3 6/21/3 17/28/3
f 26/10/2 14/9/2 8/21/2 19/28/2
f 2/1/2 24/23/2 27/14/2 15/13/2
f 9/5/4 69/24/4 66/26/4 6/8/4
f 23/18/2 3/16/2 13/12/2 28/11/2
f 19/18/6 8/16/6 67/33/6 81/34/6
f 19/18/6 81/34/6 91/35/6 45/36/6
f 86/37/1 35/38/1 36/39/1 87/40/1
f 33/41/2 40/42/2 27/14/2 24/23/2
f 22/20/1 77/19/1 87/40/1 36/39/1
f 30/10/3 17/28/3 42/29/3 43/30/3
f 12/5/3 29/6/3 18/7/3 7/8/3
f 82/43/6 18/28/6 41/29/6 92/44/6
f 36/41/3 37/42/3 31/14/3 22/23/3
f 21/18/3 32/11/3 38/45/3 35/36/3
f 44/46/3 41/47/3 18/7/3 29/6/3
f 47/46/2 46/47/2 20/7/2 25/6/2
f 38/45/3 43/30/3 44/46/3 37/42/3
f 40/42/2 33/41/2 34/36/2 39/45/2
f 46/47/2 47/46/2 48/30/2 45/29/2
f 33/48/1 85/49/1 88/50/1 34/51/1
f 42/47/6 89/52/6 92/44/6 41/29/6
f 41/47/3 44/46/3 43/30/3 42/29/3
f 37/42/3 36/41/3 35/36/3 38/45/3
f 23/18/2 28/11/2 39/45/2 34/36/2
f 31/1/6 37/16/6 51/21/6 50/8/6
f 29/1/4 31/16/4 50/21/4 49/8/4
f 37/1/5 44/16/5 52/21/5 51/8/5
f 44/1/1 29/16/1 49/21/1 52/8/1
f 50/14/3 51/42/3 52/46/3 49/6/3
f 32/1/5 30/16/5 53/21/5 54/8/5
f 38/1/6 32/16/6 54/21/6 55/8/6
f 30/1/1 43/16/1 56/21/1 53/8/1
f 43/1/4 38/16/4 55/21/4 56/8/4
f 53/10/3 56/30/3 55/45/3 54/11/3
s 0
f 70/27/7 69/24/7 60/24/7 59/27/7
s 1
f 90/53/6 46/41/6 45/36/6 91/35/6
f 85/49/1 33/48/1 24/4/1 79/3/1
f 35/38/1 86/37/1 80/54/1 21/55/1
f 89/52/6 42/47/6 17/7/6 83/32/6
f 46/41/6 90/53/6 84/56/6 20/23/6
f 73/27/5 12/9/5 7/21/5 68/22/5
f 63/15/5 4/16/5 11/12/5 76/17/5
f 5/1/6 20/23/6 84/56/6 65/57/6
f 78/58/1 23/59/1 34/51/1 88/50/1
f 74/24/5 14/5/5 13/13/5 75/25/5
f 70/27/4 16/9/4 5/21/4 65/22/4
f 82/43/6 68/60/6 7/21/6 18/28/6
f 23/59/1 78/58/1 64/26/1 3/8/1
f 3/1/5 64/2/5 75/25/5 13/13/5
f 62/15/1 1/16/1 21/55/1 80/54/1
s 0
f 89/52/7 90/53/7 110/53/7 109/52/7
s 1
f 86/37/1 87/40/1 88/50/1 85/49/1
f 85/49/1 79/3/1 80/54/1 86/37/1
f 78/58/1 88/50/1 87/40/1 77/19/1
f 89/52/6 83/32/6 84/56/6 90/53/6
f 82/43/6 92/44/6 91/35/6 81/34/6
f 68/60/6 82/43/6 81/34/6 67/33/6
f 77/19/1 63/22/1 64/26/1 78/58/1
f 70/27/4 65/22/4 66/26/4 69/24/4
s 0
f 72/17/6 70/27/2 59/27/6 57/17/2
f 69/24/6 71/25/2 58/25/6 60/24/2
s 1
f 83/32/6 66/31/6 65/57/6 84/56/6
f 73/27/5 68/22/5 67/26/5 74/24/5
f 63/15/5 76/17/5 75/25/5 64/2/5
f 62/15/1 80/54/1 79/3/1 61/2/1
f 61/15/4 72/17/4 71/25/4 62/2/4
f 1/1/4 62/2/4 71/25/4 10/13/4
s 0
f 71/25/7 72/17/7 57/17/7 58/25/7
s 1
f 59/1/1 60/16/1 96/21/1 95/8/1
f 60/1/2 58/16/2 94/21/2 96/8/2
f 58/1/6 57/16/6 93/21/6 94/8/6
f 57/1/3 59/16/3 95/21/3 93/8/3
f 96/24/4 94/25/4 93/17/4 95/27/4
f 75/1/6 76/16/6 100/21/6 99/8/6
f 73/1/1 74/16/1 98/21/1 97/8/1
f 76/1/2 73/16/2 97/21/2 100/8/2
f 74/1/3 75/16/3 99/21/3 98/8/3
f 97/27/5 98/24/5 99/25/5 100/17/5
f 40/1/6 39/16/6 105/21/6 106/8/6
f 39/1/6 28/16/6 104/21/6 105/8/6
f 47/1/1 25/16/1 101/21/1 107/8/1
f 27/1/6 40/16/6 106/21/6 103/8/6
f 26/1/1 48/16/1 108/21/1 102/8/1
f 28/1/4 26/16/4 102/21/4 104/8/4
f 48/1/1 47/16/1 107/21/1 108/8/1
f 102/10/2 108/30/2 107/46/2 101/6/2 103/14/2 106/42/2 105/45/2 104/11/2
f 25/1/5 27/16/5 103/21/5 101/8/5
f 110/53/6 111/35/6 112/44/6 109/52/6
s 0
f 92/44/6 89/52/2 109/52/6 112/44/2
f 90/53/6 91/35/2 111/35/6 110/53/2
f 91/35/7 92/44/7 112/44/7 111/35/7
