# Blender 4.4.3
# www.blender.org
mtllib monticulo-7-Plane004.mtl
o Plane.004
v -2.018050 3.200001 5.992156
v -2.018050 3.200001 5.992156
v -2.007231 -0.002251 8.607006
v -2.007231 -0.002251 8.607006
v -2.018050 3.200001 5.992156
v -2.018050 3.200001 5.992156
v -2.007231 -0.002251 8.607006
v -2.007231 -0.002251 8.607006
v -2.018050 3.200001 6.237644
v -2.018050 3.200001 6.237644
v -2.018050 3.200001 6.237644
v -2.007231 -0.002251 8.852494
v -2.007231 -0.002251 8.852494
v -2.007231 -0.002251 8.852494
v -2.579273 3.200001 5.992156
v -2.568454 -0.002251 8.607006
v -2.579273 3.191525 6.237644
v -2.568454 -0.002251 8.852494
v -2.579273 3.191525 4.017814
v -1.995317 -0.002251 8.607006
v -2.006136 3.191525 6.237644
v -1.995317 -0.002251 8.852494
v -2.018050 3.200001 5.992156
v -2.007231 -0.002251 8.607006
v -2.579273 3.200001 5.992156
v -2.568454 -0.002251 8.607006
v -2.007231 -0.002252 6.419544
v -2.568454 -0.002252 6.419544
v -2.568454 -0.002251 6.632664
v -1.995317 -0.002251 8.397503
v -2.006136 3.191525 4.017814
v -1.995317 -0.002251 6.632664
v 2.018050 3.200001 5.992156
v 2.018050 3.200001 5.992156
v 2.007231 -0.002251 8.607006
v 2.007231 -0.002251 8.607006
v 2.018050 3.200001 5.992156
v 2.018050 3.200001 5.992156
v 2.007231 -0.002251 8.607006
v 2.007231 -0.002251 8.607006
v 2.018050 3.200001 6.237644
v 2.018050 3.200001 6.237644
v 2.018050 3.200001 6.237644
v 2.007231 -0.002251 8.852494
v 2.007231 -0.002251 8.852494
v 2.007231 -0.002251 8.852494
v 2.579273 3.200001 5.992156
v 2.568454 -0.002251 8.607006
v 2.579273 3.191525 6.237644
v 2.568454 -0.002251 8.852494
v 2.579273 3.191525 4.017814
v 1.995317 -0.002251 8.607006
v 2.006136 3.191525 6.237644
v 1.995317 -0.002251 8.852494
v 2.018050 3.200001 5.992156
v 2.007231 -0.002251 8.607006
v 2.579273 3.200001 5.992156
v 2.568454 -0.002251 8.607006
v 2.007231 -0.002252 6.419544
v 2.568454 -0.002252 6.419544
v 2.568454 -0.002251 6.632664
v 1.995317 -0.002251 8.397503
v 2.006136 3.191525 4.017814
v 1.995317 -0.002251 6.632664
vn -0.0000 0.6335 0.7737
vn -0.0000 -0.0000 -0.0000
vn -1.0000 -0.0034 -0.0000
vn -0.0000 -1.0000 -0.0000
vn -0.0000 1.0000 -0.0000
vn -0.0000 -0.0000 -1.0000
vn 1.0000 0.0034 -0.0000
vn 1.0000 -0.0034 -0.0000
vn -1.0000 0.0034 -0.0000
vt 0.000000 0.000000
vt 1.000000 0.000000
vt 1.000000 1.000000
vt 0.000000 1.000000
s 1
usemtl Material.003
f 22/1/1 21/2/1 17/3/1 18/4/1
s 0
f 8/1/2 7/2/2 13/3/2 14/4/2
s 1
f 18/1/3 17/2/3 19/3/3 29/4/3
f 8/1/4 14/2/4 18/3/4 16/4/4
s 0
f 8/1/5 16/2/6 26/3/5 24/4/6
s 1
f 21/1/7 22/2/7 32/3/7 31/4/7
f 24/1/4 26/2/4 28/3/4 27/4/4
f 54/1/1 50/4/1 49/3/1 53/2/1
s 0
f 40/1/2 46/4/2 45/3/2 39/2/2
s 1
f 50/1/8 61/4/8 51/3/8 49/2/8
f 40/1/4 48/4/4 50/3/4 46/2/4
s 0
f 40/1/6 56/4/5 58/3/6 48/2/5
s 1
f 53/1/9 63/4/9 64/3/9 54/2/9
f 56/1/4 59/4/4 60/3/4 58/2/4
l 1 2
l 3 4
l 5 6
l 4 7
l 2 5
l 9 10
l 10 11
l 12 13
l 11 17
l 20 22
l 9 21
l 12 22
l 6 23
l 15 25
l 20 30
l 33 34
l 35 36
l 37 38
l 36 39
l 34 37
l 41 42
l 42 43
l 44 45
l 43 49
l 52 54
l 41 53
l 44 54
l 38 55
l 47 57
l 52 62
