# Blender 4.4.3
# www.blender.org
mtllib monticulo-7-Plane002.mtl
o Plane.002
v -2.007231 -0.002251 8.376682
v 2.007231 -0.002251 8.376682
v -2.007231 0.319637 8.376682
v 2.007231 0.319637 8.376682
v -2.007231 0.319637 8.136683
v 2.007231 0.319637 8.136683
v -2.007231 0.319637 8.136683
v 2.007231 0.319637 8.136683
v -2.007231 0.641526 8.136683
v 2.007231 0.641526 8.136683
v -2.007231 0.641526 7.896682
v 2.007231 0.641526 7.896682
v -2.007231 0.641526 7.896682
v 2.007231 0.641526 7.896682
v -2.007231 0.963414 7.896682
v 2.007231 0.963414 7.896682
v -2.007231 0.963414 7.656682
v 2.007231 0.963414 7.656682
v -2.007231 0.963414 7.656682
v 2.007231 0.963414 7.656682
v -2.007231 1.285303 7.656682
v 2.007231 1.285303 7.656682
v -2.007231 1.285303 7.416682
v 2.007231 1.285303 7.416682
v -2.007231 1.285303 7.416682
v 2.007231 1.285303 7.416682
v -2.007231 1.607192 7.416682
v 2.007231 1.607192 7.416682
v -2.007231 1.607192 7.176682
v 2.007231 1.607192 7.176682
v -2.007231 1.607192 7.176682
v 2.007231 1.607192 7.176682
v -2.007231 1.929080 7.176682
v 2.007231 1.929080 7.176682
v -2.007231 1.929080 6.936683
v 2.007231 1.929080 6.936683
v -2.007231 1.929080 6.936683
v 2.007231 1.929080 6.936683
v -2.007231 2.250968 6.936683
v 2.007231 2.250968 6.936683
v -2.007231 2.250968 6.696683
v 2.007231 2.250968 6.696683
v -2.007231 2.250968 6.696683
v 2.007231 2.250968 6.696683
v -2.007231 2.572856 6.696683
v 2.007231 2.572856 6.696683
v -2.007231 2.572856 6.456683
v 2.007231 2.572856 6.456683
v -2.007231 2.572856 6.456683
v 2.007231 2.572856 6.456683
v -2.007231 2.894746 6.456683
v 2.007231 2.894746 6.456683
v -2.007231 2.894746 6.216683
v 2.007231 2.894746 6.216683
vn -0.0000 -0.0000 1.0000
vn -0.0000 1.0000 -0.0000
vt 0.000000 0.000000
s 1
usemtl Material.001
f 1/1/1 2/1/1 4/1/1 3/1/1
f 3/1/2 4/1/2 6/1/2 5/1/2
f 7/1/1 8/1/1 10/1/1 9/1/1
f 9/1/2 10/1/2 12/1/2 11/1/2
f 13/1/1 14/1/1 16/1/1 15/1/1
f 15/1/2 16/1/2 18/1/2 17/1/2
f 19/1/1 20/1/1 22/1/1 21/1/1
f 21/1/2 22/1/2 24/1/2 23/1/2
f 25/1/1 26/1/1 28/1/1 27/1/1
f 27/1/2 28/1/2 30/1/2 29/1/2
f 31/1/1 32/1/1 34/1/1 33/1/1
f 33/1/2 34/1/2 36/1/2 35/1/2
f 37/1/1 38/1/1 40/1/1 39/1/1
f 39/1/2 40/1/2 42/1/2 41/1/2
f 43/1/1 44/1/1 46/1/1 45/1/1
f 45/1/2 46/1/2 48/1/2 47/1/2
f 49/1/1 50/1/1 52/1/1 51/1/1
f 51/1/2 52/1/2 54/1/2 53/1/2
