# Blender 4.4.3
# www.blender.org
mtllib monticulo-7-techo.mtl
o Rancho_techo_
v 6.664572 5.468810 3.691793
v 6.664572 5.468809 -3.691794
v -6.664572 5.468809 -3.691794
v -6.664572 5.468810 3.691793
v 3.770301 7.483230 -0.000001
v -3.770301 7.483230 -0.000001
vn -0.0000 0.8778 -0.4790
vn -0.0000 0.8778 0.4790
vn -0.5713 0.8208 -0.0000
vn 0.5713 0.8208 -0.0000
vt -0.001849 0.998144
vt 0.001856 -0.001849
vt 1.001849 0.001856
vt 0.998144 1.001849
vt 0.998759 -0.001238
vt 1.001238 0.998759
vt 0.001241 1.001238
vt -0.001238 0.001241
vt 0.507017 0.990634
vt -0.007544 -0.000282
vt 0.999130 -0.005613
vt 0.504230 1.018131
vt -0.014404 -0.001222
vt 1.006199 -0.014718
s 1
usemtl Material.005
f 5/1/1 2/2/1 3/3/1 6/4/1
f 1/5/2 5/6/2 6/7/2 4/8/2
f 6/9/3 3/10/3 4/11/3
f 5/12/4 1/13/4 2/14/4
