# Blender 4.4.3
# www.blender.org
mtllib monticulo-3-rancho.mtl
o Rancho
v -13.886909 9.999998 -13.192565
v -13.886909 9.999999 2.500292
v 13.886909 9.999999 2.500292
v 13.886909 9.999998 -13.192565
v -13.886909 12.799997 -13.192565
v -13.886909 12.799998 2.500292
v 13.886909 12.799998 2.500292
v 13.886909 12.799997 -13.192565
v 0.823140 9.999999 2.500292
v -0.823140 9.999999 2.500292
v -0.823140 12.799998 2.500292
v 0.823140 12.799998 2.500292
vn -0.0000 -0.0000 1.0000
vn 1.0000 -0.0000 -0.0000
vn -0.0000 -0.0000 -1.0000
vn -1.0000 -0.0000 -0.0000
vt 0.468381 0.000121
vt 0.472345 1.000114
vt 0.001986 1.001978
vt -0.001978 0.001986
vt 0.998877 -0.001120
vt 1.001120 0.998877
vt 0.001123 1.001120
vt -0.001120 0.001123
vt 0.000000 0.000000
vt 1.000000 0.000000
vt 1.000000 1.000000
vt 0.000000 1.000000
vt 0.998014 -0.001978
vt 1.001978 0.998014
vt 0.531619 0.999879
vt 0.527655 -0.000114
s 1
usemtl Material.003
f 10/1/1 11/2/1 6/3/1 2/4/1
f 7/5/2 3/6/2 4/7/2 8/8/2
f 4/9/3 1/10/3 5/11/3 8/12/3
f 1/10/4 2/4/4 6/3/4 5/11/4
f 3/13/1 7/14/1 12/15/1 9/16/1
