# Blender 4.4.3
# www.blender.org
mtllib monticulo-3-plane003.mtl
o Plane.003
v 4.000000 0.000003 39.818436
v 4.000000 9.999999 18.616590
v 4.000000 0.000003 34.661861
v 4.000000 9.999999 13.460015
v -4.000000 0.000003 39.818436
v -4.000000 9.999999 18.616590
v -4.000000 0.000003 34.661861
v -4.000000 9.999999 13.460015
vn -1.0000 -0.0000 -0.0000
vn 1.0000 -0.0000 -0.0000
vt 0.000000 0.000000
vt 1.000000 0.000000
vt 1.000000 1.000000
vt 0.000000 1.000000
s 1
usemtl Material.001
f 1/1/1 2/2/1 4/3/1 3/4/1
f 5/1/2 7/4/2 8/3/2 6/2/2
