# Blender 4.4.3
# www.blender.org
mtllib monticulo-3-techo.mtl
o Techo
v 10.211001 17.960600 -5.346138
v -10.211001 17.960600 -5.346138
v -14.630919 12.711014 -13.612947
v -14.630919 12.711015 2.920674
v 14.630919 12.711015 2.920674
v 14.630919 12.711014 -13.612947
vn -0.0000 0.8442 0.5361
vn -0.0000 0.8442 -0.5361
vn -0.7650 0.6441 -0.0000
vn 0.7650 0.6441 -0.0000
vt 0.000126 1.000126
vt -0.000126 0.000126
vt 0.999874 -0.000126
vt 1.000126 0.999874
vt 0.998563 -0.001433
vt 1.001433 0.998563
vt 0.001437 1.001433
vt -0.001433 0.001437
s 1
usemtl Material.002
f 2/1/1 4/2/1 5/3/1 1/4/1
f 3/5/2 2/6/2 1/7/2 6/8/2
f 2/6/3 3/5/3 4/2/3
f 1/7/4 5/3/4 6/8/4
