# Blender 4.3.2
# www.blender.org
mtllib monticulo-13.mtl
o Plane
v -20.000000 0.000000 10.000000
v 20.000000 0.000000 10.000000
v -20.000000 0.000000 -10.000000
v 20.000000 0.000000 -10.000000
v -20.000000 2.000000 10.000000
v 20.000000 2.000000 10.000000
v -20.000000 2.000000 -10.000000
v 20.000000 2.000000 -10.000000
v -3.042740 0.000000 10.000000
v 3.042740 0.000000 10.000000
v 3.042740 0.000000 -10.000000
v -3.042740 0.000000 -10.000000
v -3.042740 2.000000 10.000000
v 3.042740 2.000000 10.000000
v 3.042740 2.000000 -10.000000
v -3.042740 2.000000 -10.000000
v -3.042740 0.000000 8.734406
v -3.042740 2.000000 8.734406
v 3.042740 0.000000 9.083394
v 3.042740 2.000000 -7.482019
v -3.042740 2.000000 -7.482019
v 3.042740 0.000000 8.691298
v 3.042740 2.000000 8.691298
vn -0.0000 -0.0000 -1.0000
vn 1.0000 -0.0000 -0.0000
vn -1.0000 -0.0000 -0.0000
vn -0.0000 1.0000 -0.0000
vn -0.0000 -0.0000 1.0000
vt 0.000000 0.000000
vt 1.000000 0.000000
vt 1.000000 1.000000
vt 0.000000 1.000000
vt 0.423932 0.000000
vt 0.423932 1.000000
vt 0.576069 1.000000
vt 0.576069 0.000000
s 0
usemtl Material.001
f 12/1/1 3/2/1 7/3/1 16/4/1
f 4/1/1 11/2/1 15/3/1 8/4/1
f 2/1/2 4/2/2 8/3/2 6/4/2
f 3/1/3 1/2/3 5/3/3 7/4/3
f 7/4/4 5/1/4 13/5/4 16/6/4
f 16/1/1 15/2/1 11/3/1 12/4/1
f 1/1/5 9/2/5 13/3/5 5/4/5
f 10/1/5 2/2/5 6/3/5 14/4/5
f 13/1/2 9/2/2 17/3/2 18/4/2
f 8/3/4 15/7/4 14/8/4 6/2/4
f 15/1/4 16/2/4 21/3/4 20/4/4
f 10/1/3 14/2/3 23/3/3 22/4/3
l 19 10
o Plane.001
v -16.297245 2.000000 7.485325
v 16.297245 2.000000 7.485325
v -16.297245 2.000000 -7.485325
v 16.297245 2.000000 -7.485325
v -16.297245 3.000000 -7.485325
v -16.297245 3.000000 7.485325
v 16.297245 3.000000 7.485325
v 16.297245 3.000000 -7.485325
v 3.030981 2.000000 7.485325
v -3.030981 2.000000 7.485325
v -3.030981 2.000000 -7.485325
v 3.030981 2.000000 -7.485325
v 3.030981 3.000000 7.485325
v -3.030981 3.000000 7.485325
v -3.030981 3.000000 -7.485325
v 3.030981 3.000000 -7.485325
vn -0.0000 -0.0000 -1.0000
vn -0.0000 -0.0000 1.0000
vn 1.0000 -0.0000 -0.0000
vn -1.0000 -0.0000 -0.0000
vn -0.0000 1.0000 -0.0000
vt 0.000000 0.000000
vt 1.000000 0.000000
vt 1.000000 1.000000
vt 0.000000 1.000000
s 0
usemtl Material.002
f 34/9/6 26/10/6 28/11/6 38/12/6
f 27/9/6 35/10/6 39/11/6 31/12/6
f 24/9/7 33/10/7 37/11/7 29/12/7
f 25/9/8 27/10/8 31/11/8 30/12/8
f 26/9/9 24/10/9 29/11/9 28/12/9
f 32/9/7 25/10/7 30/11/7 36/12/7
f 34/9/6 38/10/6 39/11/6 35/12/6
f 28/12/10 29/9/10 30/10/10 31/11/10
o Gradas
v 3.042740 0.000000 11.981516
v -3.042740 0.000000 11.981516
v -3.042740 0.200000 11.981516
v 3.042740 0.200000 11.981516
v -3.042740 0.200000 11.681517
v 3.042740 0.200000 11.681517
v -3.042740 0.000000 11.683688
v -3.042740 0.200000 11.683688
v 3.042740 0.000000 11.681936
v 3.042740 0.200000 11.681936
v 3.042740 0.200000 11.681517
v -3.042740 0.200000 11.681517
v -3.042740 0.400000 11.681517
v 3.042740 0.400000 11.681517
v -3.042740 0.400000 11.381516
v 3.042740 0.400000 11.381516
v -3.042740 0.200000 11.383688
v -3.042740 0.400000 11.383688
v 3.042740 0.200000 11.381936
v 3.042740 0.400000 11.381936
v 3.042740 0.400000 11.381516
v -3.042740 0.400000 11.381516
v -3.042740 0.600000 11.381516
v 3.042740 0.600000 11.381516
v -3.042740 0.600000 11.081516
v 3.042740 0.600000 11.081516
v -3.042740 0.400000 11.083689
v -3.042740 0.600000 11.083689
v 3.042740 0.400000 11.081936
v 3.042740 0.600000 11.081936
v 3.042740 0.600000 11.081516
v -3.042740 0.600000 11.081516
v -3.042740 0.800000 11.081516
v 3.042740 0.800000 11.081516
v -3.042740 0.800000 10.781517
v 3.042740 0.800000 10.781517
v -3.042740 0.600000 10.783689
v -3.042740 0.800000 10.783689
v 3.042740 0.600000 10.781937
v 3.042740 0.800000 10.781937
v 3.042740 0.800000 10.781517
v -3.042740 0.800000 10.781517
v -3.042740 1.000000 10.781517
v 3.042740 1.000000 10.781517
v -3.042740 1.000000 10.481518
v 3.042740 1.000000 10.481518
v -3.042740 0.800000 10.483689
v -3.042740 1.000000 10.483689
v 3.042740 0.800000 10.481937
v 3.042740 1.000000 10.481937
v 3.042740 1.000000 10.481518
v -3.042740 1.000000 10.481518
v -3.042740 1.200000 10.481518
v 3.042740 1.200000 10.481518
v -3.042740 1.200000 10.181518
v 3.042740 1.200000 10.181518
v -3.042740 1.000000 10.183689
v -3.042740 1.200000 10.183689
v 3.042740 1.000000 10.181937
v 3.042740 1.200000 10.181937
v 3.042740 1.200000 10.181518
v -3.042740 1.200000 10.181518
v -3.042740 1.400000 10.181518
v 3.042740 1.400000 10.181518
v -3.042740 1.400000 9.881517
v 3.042740 1.400000 9.881517
v -3.042740 1.200000 9.883690
v -3.042740 1.400000 9.883690
v 3.042740 1.200000 9.881937
v 3.042740 1.400000 9.881937
v 3.042740 1.400000 9.881517
v -3.042740 1.400000 9.881517
v -3.042740 1.600000 9.881517
v 3.042740 1.600000 9.881517
v -3.042740 1.600000 9.581518
v 3.042740 1.600000 9.581518
v -3.042740 1.400000 9.583691
v -3.042740 1.600000 9.583691
v 3.042740 1.400000 9.581938
v 3.042740 1.600000 9.581938
v 3.042740 1.600000 9.581518
v -3.042740 1.600000 9.581518
v -3.042740 1.800000 9.581518
v 3.042740 1.800000 9.581518
v -3.042740 1.800000 9.281519
v 3.042740 1.800000 9.281519
v -3.042740 1.600000 9.283690
v -3.042740 1.800000 9.283690
v 3.042740 1.600000 9.281939
v 3.042740 1.800000 9.281939
v 3.042740 1.800000 9.281519
v -3.042740 1.800000 9.281519
v -3.042740 2.000000 9.281519
v 3.042740 2.000000 9.281519
v -3.042740 2.000000 8.981519
v 3.042740 2.000000 8.981519
v -3.042740 1.800000 8.983690
v -3.042740 2.000000 8.983690
v 3.042740 1.800000 8.981938
v 3.042740 2.000000 8.981938
v 3.042740 2.000000 8.981519
v -3.042740 2.000000 8.981519
v -3.042740 2.200000 8.981519
v 3.042740 2.200000 8.981519
v -3.042740 2.200000 8.681519
v 3.042740 2.200000 8.681519
v -3.042740 2.000000 8.683691
v -3.042740 2.200000 8.683691
v 3.042740 2.000000 8.681938
v 3.042740 2.200000 8.681938
v 3.042740 2.200000 8.681519
v -3.042740 2.200000 8.681519
v -3.042740 2.400000 8.681519
v 3.042740 2.400000 8.681519
v -3.042740 2.400000 8.381519
v 3.042740 2.400000 8.381519
v -3.042740 2.200000 8.383692
v -3.042740 2.400000 8.383692
v 3.042740 2.200000 8.381939
v 3.042740 2.400000 8.381939
v 3.042740 2.400000 8.381519
v -3.042740 2.400000 8.381519
v -3.042740 2.600000 8.381519
v 3.042740 2.600000 8.381519
v -3.042740 2.600000 8.081520
v 3.042740 2.600000 8.081520
v -3.042740 2.400000 8.083692
v -3.042740 2.600000 8.083692
v 3.042740 2.400000 8.081940
v 3.042740 2.600000 8.081940
v 3.042740 2.600000 8.081520
v -3.042740 2.600000 8.081520
v -3.042740 2.800000 8.081520
v 3.042740 2.800000 8.081520
v -3.042740 2.800000 7.781520
v 3.042740 2.800000 7.781520
v -3.042740 2.600000 7.783692
v -3.042740 2.800000 7.783692
v 3.042740 2.600000 7.781940
v 3.042740 2.800000 7.781940
v 3.042740 2.800000 7.781520
v -3.042740 2.800000 7.781520
v -3.042740 3.000000 7.781520
v 3.042740 3.000000 7.781520
v -3.042740 3.000000 7.481520
v 3.042740 3.000000 7.481520
v -3.042740 2.800000 7.483692
v -3.042740 3.000000 7.483692
v 3.042740 2.800000 7.481940
v 3.042740 3.000000 7.481940
vn -0.0000 -0.0000 -1.0000
vn -0.0000 -1.0000 -0.0000
vn 1.0000 -0.0000 -0.0000
vn -1.0000 -0.0000 -0.0000
vt 0.000000 0.000000
vt 1.000000 0.000000
vt 1.000000 1.000000
vt 0.000000 1.000000
s 0
usemtl Material.003
f 42/13/11 43/14/11 40/15/11 41/16/11
f 43/13/12 42/14/12 44/15/12 45/16/12
f 42/13/13 41/14/13 46/15/13 47/16/13
f 40/13/14 43/14/14 49/15/14 48/16/14
f 52/13/11 53/14/11 50/15/11 51/16/11
f 53/13/12 52/14/12 54/15/12 55/16/12
f 52/13/13 51/14/13 56/15/13 57/16/13
f 50/13/14 53/14/14 59/15/14 58/16/14
f 62/13/11 63/14/11 60/15/11 61/16/11
f 63/13/12 62/14/12 64/15/12 65/16/12
f 62/13/13 61/14/13 66/15/13 67/16/13
f 60/13/14 63/14/14 69/15/14 68/16/14
f 72/13/11 73/14/11 70/15/11 71/16/11
f 73/13/12 72/14/12 74/15/12 75/16/12
f 72/13/13 71/14/13 76/15/13 77/16/13
f 70/13/14 73/14/14 79/15/14 78/16/14
f 82/13/11 83/14/11 80/15/11 81/16/11
f 83/13/12 82/14/12 84/15/12 85/16/12
f 82/13/13 81/14/13 86/15/13 87/16/13
f 80/13/14 83/14/14 89/15/14 88/16/14
f 92/13/11 93/14/11 90/15/11 91/16/11
f 93/13/12 92/14/12 94/15/12 95/16/12
f 92/13/13 91/14/13 96/15/13 97/16/13
f 90/13/14 93/14/14 99/15/14 98/16/14
f 102/13/11 103/14/11 100/15/11 101/16/11
f 103/13/12 102/14/12 104/15/12 105/16/12
f 102/13/13 101/14/13 106/15/13 107/16/13
f 100/13/14 103/14/14 109/15/14 108/16/14
f 112/13/11 113/14/11 110/15/11 111/16/11
f 113/13/12 112/14/12 114/15/12 115/16/12
f 112/13/13 111/14/13 116/15/13 117/16/13
f 110/13/14 113/14/14 119/15/14 118/16/14
f 122/13/11 123/14/11 120/15/11 121/16/11
f 123/13/12 122/14/12 124/15/12 125/16/12
f 122/13/13 121/14/13 126/15/13 127/16/13
f 120/13/14 123/14/14 129/15/14 128/16/14
f 132/13/11 133/14/11 130/15/11 131/16/11
f 133/13/12 132/14/12 134/15/12 135/16/12
f 132/13/13 131/14/13 136/15/13 137/16/13
f 130/13/14 133/14/14 139/15/14 138/16/14
f 142/13/11 143/14/11 140/15/11 141/16/11
f 143/13/12 142/14/12 144/15/12 145/16/12
f 142/13/13 141/14/13 146/15/13 147/16/13
f 140/13/14 143/14/14 149/15/14 148/16/14
f 152/13/11 153/14/11 150/15/11 151/16/11
f 153/13/12 152/14/12 154/15/12 155/16/12
f 152/13/13 151/14/13 156/15/13 157/16/13
f 150/13/14 153/14/14 159/15/14 158/16/14
f 162/13/11 163/14/11 160/15/11 161/16/11
f 163/13/12 162/14/12 164/15/12 165/16/12
f 162/13/13 161/14/13 166/15/13 167/16/13
f 160/13/14 163/14/14 169/15/14 168/16/14
f 172/13/11 173/14/11 170/15/11 171/16/11
f 173/13/12 172/14/12 174/15/12 175/16/12
f 172/13/13 171/14/13 176/15/13 177/16/13
f 170/13/14 173/14/14 179/15/14 178/16/14
f 182/13/11 183/14/11 180/15/11 181/16/11
f 183/13/12 182/14/12 184/15/12 185/16/12
f 182/13/13 181/14/13 186/15/13 187/16/13
f 180/13/14 183/14/14 189/15/14 188/16/14
o Plane.002
v -3.030981 3.000000 7.485325
v -3.042740 0.000000 11.981516
v -3.030981 3.000000 5.490558
v -3.042740 0.000000 9.986749
v 3.030981 3.000000 7.485325
v 3.042740 0.000000 11.981516
v 3.030981 3.000000 5.490558
v 3.042740 0.000000 9.986749
vn 1.0000 -0.0039 -0.0000
vn -1.0000 -0.0039 -0.0000
vt 0.000000 0.000000
vt 1.000000 0.000000
vt 1.000000 1.000000
vt 0.000000 1.000000
s 0
usemtl Material.004
f 190/17/15 191/18/15 193/19/15 192/20/15
f 194/17/16 196/20/16 197/19/16 195/18/16
o Plane.003
v -9.435410 3.000000 -4.333684
v -9.435410 3.000000 4.333684
v 9.435410 3.000000 4.333684
v 9.435410 3.000000 -4.333684
v -9.435410 5.400000 -4.333684
v -9.435410 5.400000 4.333684
v 9.435410 5.400000 4.333684
v 9.435410 5.400000 -4.333684
v 1.023350 3.000000 4.333684
v -1.023350 3.000000 4.333684
v -1.023350 5.400000 4.333684
v 1.023350 5.400000 4.333684
vn -0.0000 -0.0000 -1.0000
vn -1.0000 -0.0000 -0.0000
vn -0.0000 -0.0000 1.0000
vn 1.0000 -0.0000 -0.0000
vt 0.000000 0.000000
vt 1.000000 0.000000
vt 1.000000 1.000000
vt 0.000000 1.000000
s 0
usemtl Material.005
f 201/21/17 198/22/17 202/23/17 205/24/17
f 198/21/18 199/22/18 203/23/18 202/24/18
f 199/21/19 207/22/19 208/23/19 203/24/19
f 200/21/20 201/22/20 205/23/20 204/24/20
f 206/21/19 200/22/19 204/23/19 209/24/19
o Plane.004
v -10.053544 5.329837 -4.617593
v -10.053544 5.329837 4.617593
v 10.053544 5.329837 4.617593
v 10.053544 5.329837 -4.617593
v -8.284962 8.753310 0.000000
v 8.284962 8.753310 0.000000
vn -0.8884 0.4590 -0.0000
vn -0.0000 0.8033 0.5956
vn 0.8884 0.4590 -0.0000
vn -0.0000 0.8033 -0.5956
vt 0.529929 1.002753
vt 1.005454 0.008257
vt 0.000000 0.000000
vt 0.006769 0.994150
vt 1.004305 0.000000
vt 1.004684 0.996455
vt 0.498805 1.005554
vt 1.009965 -0.000501
vt 0.002827 -0.007157
vt 0.005011 -0.007079
vt 0.003484 1.005676
vt 1.000000 1.002884
vt 0.996729 -0.000870
s 0
usemtl Material.006
f 214/25/21 210/26/21 211/27/21
f 214/28/22 211/27/22 212/29/22 215/30/22
f 215/31/23 212/32/23 213/33/23
f 210/34/24 214/35/24 215/36/24 213/37/24
