# Blender 4.4.3
# www.blender.org
mtllib palangana-escalinatas.mtl
o escalinatas
v -7.346390 1.223979 13.258925
v -8.088739 1.223979 13.258925
v -7.346390 1.712642 13.258925
v -8.088739 1.712642 13.258925
v -8.088739 2.509255 12.361628
v -7.346389 2.509255 12.361628
v -8.088739 2.509255 11.254889
v -8.088739 1.712642 12.152187
v -8.088739 1.223979 12.152187
v -7.346390 1.223979 12.824293
v -7.346390 1.712642 12.824293
v -7.346389 2.509255 11.926995
v 7.346390 1.223979 13.258925
v 8.088739 1.223979 13.258925
v 7.346390 1.712642 13.258925
v 8.088739 1.712642 13.258925
v 8.088739 2.509255 12.361628
v 7.346389 2.509255 12.361628
v 8.088739 2.509255 11.254889
v 8.088739 1.712642 12.152187
v 8.088739 1.223979 12.152187
v 7.346390 1.223979 12.824293
v 7.346390 1.712642 12.824293
v 7.346389 2.509255 11.926995
vn -0.0000 -0.0000 -1.0000
vn -0.0000 -0.7478 -0.6639
vn 1.0000 -0.0000 -0.0000
vn -1.0000 -0.0000 -0.0000
vt 0.000000 0.000000
vt 1.000000 0.000000
vt 1.000000 1.000000
vt 0.000000 1.000000
s 1
usemtl Material.001
f 1/1/1 2/2/1 4/3/1 3/4/1
f 5/1/2 6/2/2 3/3/2 4/4/2
f 4/1/3 2/2/3 9/3/3 8/4/3
f 5/1/3 4/2/3 8/3/3 7/4/3
f 3/1/4 6/2/4 12/3/4 11/4/4
f 1/1/4 3/2/4 11/3/4 10/4/4
f 13/1/1 15/4/1 16/3/1 14/2/1
f 17/1/2 16/4/2 15/3/2 18/2/2
f 16/1/4 20/4/4 21/3/4 14/2/4
f 17/1/4 19/4/4 20/3/4 16/2/4
f 15/1/3 23/4/3 24/3/3 18/2/3
f 13/1/3 22/4/3 23/3/3 15/2/3
