# Blender 4.4.3
# www.blender.org
mtllib palangana-tablero-1.1.mtl
o tablero-1.1
v -16.352385 0.990745 -12.361628
v -16.352385 0.990747 12.361628
v 16.352385 0.990747 12.361628
v 16.352385 0.990745 -12.361628
v -16.352385 2.509253 -12.361628
v -16.352385 2.509255 12.361628
v 16.352385 2.509255 12.361628
v 16.352385 2.509253 -12.361628
v -16.352385 2.276021 -12.361628
v -16.352385 1.223977 -12.361628
v 16.352385 1.223977 -12.361628
v 16.352385 2.276021 -12.361628
v 16.352385 1.223979 12.361628
v 16.352385 2.276023 12.361628
v -16.352385 2.276023 12.361628
v -16.352385 1.223979 12.361628
v -16.084068 2.509253 -12.361628
v 16.084068 2.509253 -12.361628
v 16.084068 2.509255 12.361628
v -16.084068 2.509255 12.361628
v 16.084068 0.990745 -12.361628
v -16.084068 0.990745 -12.361628
v -16.084068 0.990747 12.361628
v 16.084068 0.990747 12.361628
v 16.084068 2.276023 12.361628
v -16.084068 2.276023 12.361628
v 16.084068 1.223979 12.361628
v -16.084068 1.223979 12.361628
v 16.084068 2.276021 -12.361628
v -16.084068 2.276021 -12.361628
v 16.084068 1.223977 -12.361628
v -16.084068 1.223977 -12.361628
v -16.084068 1.223979 12.211627
v 16.084068 1.223979 12.211627
v -16.084068 2.276023 12.211627
v 16.084068 2.276023 12.211627
v 16.352385 1.223979 12.084964
v 16.352385 1.223977 -12.084964
v 16.352385 2.276023 12.084964
v 16.352385 2.276021 -12.084964
v -16.352385 1.223979 12.084964
v -16.352385 1.223977 -12.084964
v -16.352385 2.276021 -12.084964
v -16.352385 2.276023 12.084964
v 16.352385 2.509253 -12.084964
v 16.352385 2.509255 12.084964
v -16.352385 2.509253 -12.084964
v -16.352385 2.509255 12.084964
v 16.352385 0.990745 -12.084964
v 16.352385 0.990747 12.084964
v -16.352385 0.990745 -12.084964
v -16.352385 0.990747 12.084964
v 16.084068 2.509253 -12.084964
v 16.084068 2.509255 12.084964
v -16.084068 2.509255 12.084964
v -16.084068 2.509253 -12.084964
v 16.084068 0.990747 12.084964
v 16.084068 0.990745 -12.084964
v -16.084068 0.990745 -12.084964
v -16.084068 0.990747 12.084964
v 16.202383 1.223977 -12.084964
v 16.202383 1.223979 12.084964
v 16.052383 2.276023 12.084964
v 16.052383 2.276021 -12.084964
v 16.202383 2.276023 12.084964
v 16.202383 2.276021 -12.084964
v 16.084068 2.276021 -12.211627
v -16.084068 2.276021 -12.211627
v 16.084068 1.223977 -12.211627
v -16.084068 1.223977 -12.211627
v -16.202383 1.223979 12.084964
v -16.202383 1.223977 -12.084964
v -16.202383 2.276021 -12.084964
v -16.202383 2.276023 12.084964
v -11.860569 1.223979 12.361628
v 11.860569 1.223979 12.361628
v 11.860569 0.990747 12.361628
v -11.860569 0.990747 12.361628
v -11.860569 2.276021 -12.361628
v 11.860569 2.276021 -12.361628
v 11.860569 2.509253 -12.361628
v -11.860569 2.509253 -12.361628
v 11.860569 2.276023 12.361628
v -11.860569 2.276023 12.361628
v 11.860569 1.223977 -12.361628
v -11.860569 1.223977 -12.361628
v -11.860569 0.990745 -12.361628
v 11.860569 0.990745 -12.361628
v 11.860569 2.509255 12.361628
v -11.860569 2.509255 12.361628
v 11.860569 2.509253 -12.084964
v -11.860569 2.509253 -12.084964
v -11.860569 2.509255 12.084964
v 11.860569 2.509255 12.084964
v 11.860569 0.990747 12.084964
v -11.860569 0.990747 12.084964
v -11.860569 0.990745 -12.084964
v 11.860569 0.990745 -12.084964
v -11.860569 2.276023 12.211627
v 11.860569 2.276023 12.211627
v 11.860569 1.223979 12.211627
v -11.860569 1.223979 12.211627
v 11.860569 2.276021 -12.211627
v -11.860569 2.276021 -12.211627
v -11.860569 1.223977 -12.211627
v 11.860569 1.223977 -12.211627
v -8.088739 1.223979 12.361628
v 8.088739 1.223977 -12.211627
v -8.088739 1.223977 -12.211627
v -8.088739 1.223977 -12.361628
v 8.088739 1.223977 -12.361628
v 8.088739 2.276021 -12.361628
v -8.088739 2.276021 -12.361628
v -8.088739 2.276021 -12.211627
v 8.088739 2.276021 -12.211627
v 8.088739 2.276023 12.211627
v -8.088739 2.276023 12.211627
v -8.088739 2.276023 12.361628
v 8.088739 2.276023 12.361628
v 8.088739 1.223979 12.361628
v -8.088739 1.223979 12.361628
v -8.088739 1.223979 12.211627
v 8.088739 1.223979 12.211627
v -8.088739 0.990747 12.084964
v 8.088739 0.990747 12.084964
v 8.088739 0.990745 -12.084964
v -8.088739 0.990745 -12.084964
v -8.088739 2.509253 -12.084964
v 8.088739 2.509253 -12.084964
v 8.088739 2.509255 12.084964
v -8.088739 2.509255 12.084964
v -8.088739 2.509253 -12.361628
v 8.088739 2.509253 -12.361628
v -8.088739 0.990747 12.361628
v 8.088739 0.990747 12.361628
v 8.088739 0.990745 -12.361628
v -8.088739 0.990745 -12.361628
v -8.088739 2.509255 12.361628
v 8.088739 2.509255 12.361628
v -7.346390 1.223977 -12.211627
v 7.346390 1.223977 -12.211627
v 7.346390 2.276021 -12.211627
v -7.346390 2.276021 -12.211627
v -7.346390 1.223979 12.211627
v 7.346390 1.223979 12.211627
v 7.346390 2.276023 12.211627
v -7.346390 2.276023 12.211627
v 7.346390 2.509253 -12.084964
v -7.346390 2.509253 -12.084964
v 7.346390 0.990747 12.084964
v -7.346390 0.990747 12.084964
v 7.346390 0.990745 -12.084964
v -7.346390 0.990745 -12.084964
v -7.346390 2.276023 12.361628
v 7.346390 2.276023 12.361628
v 7.346390 1.223977 -12.361628
v -7.346390 1.223977 -12.361628
v -7.346390 0.990745 -12.361628
v 7.346390 0.990745 -12.361628
v -7.346390 2.509253 -12.361628
v 7.346390 2.509253 -12.361628
v -7.346390 2.276021 -12.361628
v 7.346390 2.276021 -12.361628
v -7.346390 0.990747 12.361628
v 7.346390 0.990747 12.361628
v -7.346390 2.509255 12.084964
v 7.346390 2.509255 12.084964
v 7.346390 2.509255 12.361628
v -7.346390 2.509255 12.361628
vn -0.0000 -0.0000 -1.0000
vn -0.0000 -0.0000 1.0000
vn -1.0000 -0.0000 -0.0000
vn -0.0000 1.0000 -0.0000
vn -0.0000 -1.0000 -0.0000
vn 1.0000 -0.0000 -0.0000
vt 0.000000 0.000000
vt 1.000000 0.000000
vt 1.000000 1.000000
vt 0.000000 1.000000
vt 0.991796 0.000000
vt 0.991796 0.011190
vt 0.862656 0.011190
vt 0.862656 0.000000
vt 1.000000 0.011190
vt 0.991796 0.988810
vt 0.991796 1.000000
vt 1.000000 0.988810
vt 0.862656 1.000000
vt 0.862656 0.988810
vt 1.000000 0.131295
vt 0.868706 0.868706
vt 0.868706 1.000000
vt 0.008204 0.000000
vt 0.008204 0.011190
vt 0.000000 0.011190
vt 0.000000 0.131295
vt 0.000000 0.988810
vt 0.008204 0.988810
vt 0.008204 1.000000
vt 0.000000 0.868706
vt 1.000000 0.868706
vt 0.131295 0.000000
vt 0.868706 0.131295
vt 0.137344 1.000000
vt 0.137344 0.988810
vt 0.868706 0.000000
vt 0.131295 1.000000
vt 0.137344 0.011190
vt 0.137344 0.000000
vt 0.131295 0.131295
vt 0.131295 0.868706
vt 1.000000 0.248548
vt 0.000000 0.248548
vt 0.751452 0.751452
vt 0.751452 1.000000
vt 1.000000 0.751452
vt 0.252674 0.988810
vt 0.252674 0.011190
vt 0.751452 0.000000
vt 0.747326 0.988810
vt 0.747326 1.000000
vt 0.747326 0.011190
vt 0.747326 0.000000
vt 0.252674 1.000000
vt 0.252674 0.000000
vt 0.000000 0.751452
vt 0.751452 0.248548
vt 0.728375 0.271625
vt 0.000000 0.728375
vt 0.248548 0.000000
vt 0.248548 0.751452
vt 0.248548 1.000000
vt 0.248548 0.248548
vt 0.724628 0.011190
vt 0.724627 0.000000
vt 1.000000 0.271625
vt 0.000000 0.271625
vt 0.724627 0.011190
vt 0.724627 1.000000
vt 0.724627 0.988810
vt 0.275373 0.988810
vt 0.275373 1.000000
vt 0.271625 1.000000
vt 0.271625 0.271625
vt 1.000000 0.728375
vt 0.271625 0.000000
vt 0.271625 0.728375
vt 0.728375 0.728375
vt 0.728375 1.000000
vt 0.728375 0.000000
vt 0.275373 0.011190
vt 0.275373 0.000000
vt 0.724628 0.988810
s 1
usemtl Material.001
f 4/1/1 21/2/1 31/3/1 11/4/1
f 14/1/2 7/2/2 19/3/2 25/4/2
f 43/1/3 9/2/3 10/3/3 42/4/3
f 19/5/4 54/6/4 94/7/4 89/8/4
f 24/5/5 57/6/5 50/9/5 3/2/5
f 14/1/2 25/2/2 27/3/2 13/4/2
f 29/1/1 12/2/1 11/3/1 31/4/1
f 14/1/6 39/2/6 46/3/6 7/4/6
f 1/1/3 51/2/3 42/3/3 10/4/3
f 12/1/1 29/2/1 18/3/1 8/4/1
f 9/1/1 30/2/1 32/3/1 10/4/1
f 9/1/3 43/2/3 47/3/3 5/4/3
f 49/1/6 4/2/6 11/3/6 38/4/6
f 58/10/5 21/11/5 4/3/5 49/12/5
f 53/10/4 45/12/4 8/3/4 18/11/4
f 26/1/2 15/2/2 16/3/2 28/4/2
f 19/5/4 7/2/4 46/9/4 54/6/4
f 23/1/2 28/2/2 16/3/2 2/4/2
f 3/1/2 13/2/2 27/3/2 24/4/2
f 26/1/2 20/2/2 6/3/2 15/4/2
f 30/1/1 9/2/1 5/3/1 17/4/1
f 22/1/1 1/2/1 10/3/1 32/4/1
f 57/6/5 24/5/5 77/8/5 95/7/5
f 53/10/4 18/11/4 81/13/4 91/14/4
f 85/3/4 106/15/4 69/2/4 31/3/4
f 83/16/5 100/17/5 36/3/5 25/3/5
f 21/11/5 58/10/5 98/14/5 88/13/5
f 6/1/4 20/18/4 55/19/4 48/20/4
f 30/1/1 17/2/1 82/15/1 79/21/1
f 20/1/2 26/2/2 84/15/2 90/21/2
f 47/22/4 56/23/4 17/24/4 5/4/4
f 44/1/3 15/2/3 6/3/3 48/4/3
f 39/1/6 14/2/6 13/3/6 37/4/6
f 52/1/3 2/2/3 16/3/3 41/4/3
f 40/1/6 12/2/6 8/3/6 45/4/6
f 12/1/6 40/2/6 38/3/6 11/4/6
f 2/1/5 52/20/5 60/19/5 23/18/5
f 51/22/5 1/4/5 22/24/5 59/23/5
f 15/1/3 44/2/3 41/3/3 16/4/3
f 56/23/4 47/22/4 48/20/4 55/19/4
f 44/1/3 48/2/3 47/3/3 43/4/3
f 40/1/6 45/2/6 46/3/6 39/4/6
f 52/1/3 41/2/3 42/3/3 51/4/3
f 45/12/4 53/10/4 54/6/4 46/9/4
f 51/22/5 59/23/5 60/19/5 52/20/5
f 58/10/5 49/12/5 50/9/5 57/6/5
f 53/10/4 91/14/4 94/7/4 54/6/4
f 49/1/6 38/2/6 37/3/6 50/4/6
f 57/6/5 95/7/5 98/14/5 58/10/5
f 3/1/6 50/2/6 37/3/6 13/4/6
f 40/1/5 39/4/5 63/1/5 64/4/5
f 62/1/6 61/2/6 66/3/6 65/4/6
f 104/25/1 105/26/1 70/3/1 68/4/1
f 28/1/4 75/21/4 102/27/4 33/1/4
f 28/1/6 33/1/6 35/4/6 26/1/6
f 22/1/1 32/2/1 86/15/1 87/21/1
f 25/3/3 36/3/3 34/2/3 27/4/3
f 65/4/4 39/4/4 40/1/4 66/3/4
f 40/1/2 66/3/2 61/2/2 38/3/2
f 38/3/4 61/2/4 62/1/4 37/3/4
f 37/3/1 62/1/1 65/4/1 39/4/1
f 67/1/1 69/2/1 106/15/1 103/21/1
f 30/2/6 68/4/6 70/3/6 32/3/6
f 30/2/5 79/28/5 104/25/5 68/4/5
f 87/29/5 97/30/5 59/23/5 22/24/5
f 31/3/3 69/2/3 67/1/3 29/4/3
f 73/1/3 72/2/3 71/3/3 74/4/3
f 42/3/4 41/2/4 71/3/4 72/2/4
f 44/2/1 74/4/1 71/3/1 41/2/1
f 44/1/5 43/2/5 73/3/5 74/4/5
f 42/1/2 72/2/2 73/3/2 43/4/2
f 88/25/1 85/26/1 31/3/1 21/4/1
f 80/25/1 81/26/1 18/3/1 29/4/1
f 89/25/2 83/26/2 25/3/2 19/4/2
f 76/25/2 77/26/2 24/3/2 27/4/2
f 101/31/2 34/2/2 36/3/2 100/17/2
f 33/1/2 102/27/2 99/32/2 35/4/2
f 96/33/5 60/19/5 59/23/5 97/30/5
f 92/30/4 82/29/4 17/24/4 56/23/4
f 96/33/5 78/34/5 23/18/5 60/19/5
f 90/34/4 93/33/4 55/19/4 20/18/4
f 26/1/5 35/4/5 99/32/5 84/35/5
f 32/3/4 70/3/4 105/26/4 86/3/4
f 80/36/5 29/4/5 67/1/5 103/21/5
f 76/25/4 27/4/4 34/2/4 101/31/4
f 92/30/4 56/23/4 55/19/4 93/33/4
f 110/37/1 137/38/1 87/21/1 86/15/1
f 100/17/5 83/16/5 119/39/5 116/40/5
f 109/41/4 110/3/4 86/3/4 105/26/4
f 118/37/2 138/38/2 90/21/2 84/15/2
f 96/33/5 97/30/5 127/42/5 124/43/5
f 101/31/2 100/17/2 116/40/2 123/44/2
f 126/45/5 136/46/5 88/13/5 98/14/5
f 130/47/4 139/48/4 89/8/4 94/7/4
f 82/29/4 92/30/4 128/42/4 132/49/4
f 78/34/5 96/33/5 124/43/5 134/50/5
f 97/30/5 87/29/5 137/49/5 127/42/5
f 83/26/2 89/25/2 139/51/2 119/41/2
f 85/26/1 88/25/1 136/51/1 111/41/1
f 81/26/1 80/25/1 112/51/1 133/41/1
f 77/26/2 76/25/2 120/51/2 135/41/2
f 93/33/4 90/34/4 138/50/4 131/43/4
f 28/1/2 23/2/2 78/15/2 75/21/2
f 114/51/5 113/52/5 162/53/5 143/54/5
f 121/38/4 122/55/4 102/27/4 75/21/4
f 113/52/5 114/51/5 104/25/5 79/28/5
f 80/36/5 103/21/5 115/38/5 112/56/5
f 76/25/4 101/31/4 123/44/4 120/51/4
f 92/30/4 93/33/4 131/43/4 128/42/4
f 125/47/5 126/45/5 98/14/5 95/7/5
f 129/45/4 130/47/4 94/7/4 91/14/4
f 133/46/4 129/45/4 91/14/4 81/13/4
f 135/48/5 125/47/5 95/7/5 77/8/5
f 117/57/5 118/58/5 84/35/5 99/32/5
f 134/37/2 121/38/2 75/21/2 78/15/2
f 122/55/2 117/57/2 99/32/2 102/27/2
f 108/37/1 115/38/1 103/21/1 106/15/1
f 132/37/1 113/38/1 79/21/1 82/15/1
f 105/26/1 104/25/1 114/51/1 109/41/1
f 139/48/4 130/47/4 167/59/4 168/60/4
f 113/38/1 132/37/1 160/61/1 162/62/1
f 137/38/1 110/37/1 157/61/1 158/62/1
f 138/38/2 118/37/2 154/61/2 169/62/2
f 125/47/5 135/48/5 165/60/5 150/63/5
f 129/45/4 133/46/4 161/64/4 148/65/4
f 149/66/4 160/67/4 132/49/4 128/42/4
f 126/45/5 125/47/5 150/63/5 152/65/5
f 118/58/5 117/57/5 147/68/5 154/69/5
f 130/47/4 129/45/4 148/65/4 167/63/4
f 110/3/4 109/41/4 140/70/4 157/3/4
f 117/57/2 122/55/2 144/71/2 147/68/2
f 115/38/1 108/37/1 141/61/1 142/62/1
f 106/15/4 85/3/4 111/3/4 108/37/4
f 142/62/5 163/72/5 112/56/5 115/38/5
f 143/54/1 140/70/1 109/41/1 114/51/1
f 155/73/5 146/74/5 116/40/5 119/39/5
f 146/74/2 145/75/2 123/44/2 116/40/2
f 151/76/5 164/77/5 134/50/5 124/43/5
f 166/76/4 149/66/4 128/42/4 131/43/4
f 153/66/5 151/76/5 124/43/5 127/42/5
f 136/46/5 126/45/5 152/78/5 159/64/5
f 158/67/5 153/66/5 127/42/5 137/49/5
f 168/54/2 155/70/2 119/41/2 139/51/2
f 159/54/1 156/70/1 111/41/1 136/51/1
f 163/54/1 161/70/1 133/41/1 112/51/1
f 169/77/4 166/76/4 131/43/4 138/50/4
f 155/70/2 168/54/2 169/62/2 154/61/2
f 149/66/4 166/76/4 167/63/4 148/65/4
f 145/75/2 146/74/2 147/68/2 144/71/2
f 163/72/5 142/62/5 143/54/5 162/53/5
f 161/70/1 163/54/1 162/62/1 160/61/1
f 153/66/5 158/67/5 159/64/5 152/78/5
f 151/76/5 153/66/5 152/65/5 150/63/5
f 141/61/4 156/3/4 157/3/4 140/70/4
f 164/77/5 151/76/5 150/63/5 165/60/5
f 156/70/1 159/54/1 158/62/1 157/61/1
f 146/74/5 155/73/5 154/69/5 147/68/5
f 140/70/1 143/54/1 142/62/1 141/61/1
f 160/67/4 149/66/4 148/65/4 161/64/4
f 166/76/4 169/77/4 168/60/4 167/59/4
f 156/3/4 141/61/4 108/37/4 111/3/4
l 107 121
