# Blender 4.4.3
# www.blender.org
mtllib palangana-bloque-2.mtl
o bloque-2
v -11.590655 0.500356 35.210579
v -11.590655 0.500356 36.172806
v -10.628428 0.500356 36.172806
v -10.628428 0.500356 35.210579
v -11.590655 1.033179 35.210579
v -11.590655 1.033179 36.172806
v -10.628428 1.033179 36.172806
v -10.628428 1.033179 35.210579
v 11.590655 0.500356 35.210579
v 11.590655 0.500356 36.172806
v 10.628428 0.500356 36.172806
v 10.628428 0.500356 35.210579
v 11.590655 1.033179 35.210579
v 11.590655 1.033179 36.172806
v 10.628428 1.033179 36.172806
v 10.628428 1.033179 35.210579
vn 1.0000 -0.0000 -0.0000
vn -0.0000 1.0000 -0.0000
vn -1.0000 -0.0000 -0.0000
vn -0.0000 -0.0000 1.0000
vt 0.000000 0.000000
vt 1.000000 0.000000
vt 1.000000 1.000000
vt 0.000000 1.000000
s 1
usemtl Material.002
f 3/1/1 4/2/1 8/3/1 7/4/1
f 6/1/2 7/2/2 8/3/2 5/4/2
f 1/1/3 2/2/3 6/3/3 5/4/3
f 2/1/4 3/2/4 7/3/4 6/4/4
f 11/1/3 15/4/3 16/3/3 12/2/3
f 14/1/2 13/4/2 16/3/2 15/2/2
f 9/1/1 13/4/1 14/3/1 10/2/1
f 10/1/4 14/4/4 15/3/4 11/2/4
