# Blender 4.4.3
# www.blender.org
mtllib palangana-bloque-1.mtl
o bloque-1
v -11.597466 0.003383 36.684956
v -10.621615 0.003383 36.684956
v -11.597466 0.003383 35.709110
v -10.621615 0.003383 35.709110
v -11.597466 0.507441 35.709110
v -11.597466 0.507441 36.684956
v -10.621615 0.507441 36.684956
v -10.621615 0.507441 35.709110
v 11.597466 0.003383 36.684956
v 10.621615 0.003383 36.684956
v 11.597466 0.003383 35.709110
v 10.621615 0.003383 35.709110
v 11.597466 0.507441 35.709110
v 11.597466 0.507441 36.684956
v 10.621615 0.507441 36.684956
v 10.621615 0.507441 35.709110
vn -0.0000 -0.0000 1.0000
vn 1.0000 -0.0000 -0.0000
vn -0.0000 1.0000 -0.0000
vn -1.0000 -0.0000 -0.0000
vt 1.000000 0.000000
vt 1.000000 1.000000
vt 0.000000 1.000000
vt 0.000000 0.000000
s 1
usemtl Material.002
f 2/1/1 7/2/1 6/3/1 1/4/1
f 2/4/2 4/1/2 8/2/2 7/3/2
f 5/4/3 6/1/3 7/2/3 8/3/3
f 1/1/4 6/2/4 5/3/4 3/4/4
f 10/1/1 9/4/1 14/3/1 15/2/1
f 10/4/4 15/3/4 16/2/4 12/1/4
f 13/4/3 16/3/3 15/2/3 14/1/3
f 9/1/2 11/4/2 13/3/2 14/2/2
