# Blender 4.4.3
# www.blender.org
mtllib palangana-Talud-1.2.mtl
o Talud-1.2
v -16.799999 0.000001 12.700000
v 16.799999 0.000001 12.700000
v -16.799999 -0.000001 -12.700000
v 16.799999 -0.000001 -12.700000
v -16.153078 0.999999 -12.210960
v -16.153078 1.000001 12.210960
v 16.153078 1.000001 12.210960
v 16.153078 0.999999 -12.210960
v -11.857743 0.000001 12.700000
v 11.857743 0.000001 12.700000
v 11.857743 -0.000001 -12.700000
v -11.857743 -0.000001 -12.700000
v -11.857743 1.000001 12.210960
v 11.857743 1.000001 12.210960
v 11.857743 0.999999 -12.210960
v -11.857743 0.999999 -12.210960
vn -0.0000 0.4393 -0.8983
vn 0.8396 0.5432 -0.0000
vn -0.8396 0.5432 -0.0000
vn -0.0000 -1.0000 -0.0000
vn -0.0000 0.4393 0.8983
vt 0.852909 0.000000
vt 1.000000 0.000000
vt 1.000000 1.000000
vt 0.867043 1.000000
vt 0.000000 0.000000
vt 0.000000 1.000000
vt 0.147091 0.000000
vt 0.132957 1.000000
vt 0.147091 1.000000
vt 0.852909 1.000000
s 1
usemtl Material.002
f 12/1/1 3/2/1 5/3/1 16/4/1
f 2/5/2 4/2/2 8/3/2 7/6/2
f 3/5/3 1/2/3 6/3/3 5/6/3
f 4/5/1 11/7/1 15/8/1 8/6/1
f 1/5/4 3/6/4 12/9/4 9/7/4
f 10/1/4 11/10/4 4/3/4 2/2/4
f 1/5/5 9/7/5 13/8/5 6/6/5
f 10/1/5 14/4/5 13/8/5 9/7/5
f 12/1/1 16/4/1 15/8/1 11/7/1
f 11/10/4 10/1/4 9/7/4 12/9/4
f 10/1/5 2/2/5 7/3/5 14/4/5
