# Blender 4.4.3
# www.blender.org
mtllib palangana-gradas.mtl
o gradas
v 7.346389 1.245791 13.257524
v -7.346389 1.245791 13.257524
v 7.346389 1.588073 13.257524
v -7.346389 1.588073 13.257524
v 7.346389 1.588073 12.957524
v -7.346389 1.588073 12.957524
v 7.346389 1.588073 12.957524
v -7.346389 1.588073 12.957524
v 7.346389 1.930356 12.957524
v -7.346389 1.930356 12.957524
v 7.346389 1.930356 12.657524
v -7.346389 1.930356 12.657524
v 7.346389 1.930356 12.657524
v -7.346389 1.930356 12.657524
v 7.346389 2.272639 12.657524
v -7.346389 2.272639 12.657524
v 7.346389 2.272639 12.357524
v -7.346389 2.272639 12.357524
vn -0.0000 -0.0000 1.0000
vn -0.0000 1.0000 -0.0000
vt 0.000000 0.000000
vt 1.000000 0.000000
vt 1.000000 1.000000
vt 0.000000 1.000000
s 1
usemtl Material.001
f 2/1/1 1/2/1 3/3/1 4/4/1
f 4/1/2 3/2/2 5/3/2 6/4/2
f 8/1/1 7/2/1 9/3/1 10/4/1
f 10/1/2 9/2/2 11/3/2 12/4/2
f 14/1/1 13/2/1 15/3/1 16/4/1
f 16/1/2 15/2/2 17/3/2 18/4/2
