# Blender 4.4.3
# www.blender.org
mtllib monticulo-12-Templo_1_y_2.mtl
o Templo_1_y_2
v -30.000000 0.000002 27.000000
v 30.000000 0.000002 27.000000
v -30.000000 -0.000002 -27.000000
v 30.000000 -0.000002 -27.000000
v -30.000000 3.500002 27.000000
v 30.000000 3.500002 27.000000
v -30.000000 3.499998 -27.000000
v 30.000000 3.499998 -27.000000
v -30.000000 3.499998 -27.000000
v -30.000000 3.500002 27.000000
v 30.000000 3.500002 27.000000
v 30.000000 3.499998 -27.000000
v -21.990002 3.499999 -18.981001
v -21.990002 3.500001 18.981001
v 21.990002 3.500001 18.981001
v 21.990002 3.499999 -18.981001
v -21.990002 3.499999 -18.981001
v -21.990002 3.500001 18.981001
v 21.990002 3.500001 18.981001
v 21.990002 3.499999 -18.981001
v -21.990002 5.499999 -18.981001
v -21.990002 5.500001 18.981001
v 21.990002 5.500001 18.981001
v 21.990002 5.499999 -18.981001
v -4.110860 0.000002 27.000000
v 4.110860 0.000002 27.000000
v 4.110860 -0.000002 -27.000000
v -4.110860 -0.000002 -27.000000
v -4.123368 3.500002 27.000000
v 4.123368 3.500002 27.000000
v -4.123368 3.499998 -27.000000
v 4.123368 3.499998 -27.000000
v 4.131335 3.500002 27.000000
v -4.131335 3.500002 27.000000
v 4.131335 3.499998 -27.000000
v -4.131335 3.499998 -27.000000
v -4.131335 3.500001 18.981001
v 4.131335 3.500001 18.981001
v 4.131335 3.499999 -18.981001
v -4.131335 3.499999 -18.981001
v -4.123368 3.500001 18.981001
v 4.123368 3.500001 18.981001
v -4.123368 3.499999 -18.981001
v 4.123368 3.499999 -18.981001
v -4.110860 5.500001 18.981001
v 4.110860 5.500001 18.981001
v 4.110860 5.499999 -18.981001
v -4.110860 5.499999 -18.981001
v -4.131335 3.500002 27.000000
v -4.131335 3.500001 18.981001
v -4.131335 0.746300 27.000000
v -4.131335 0.746299 18.981001
v 4.131335 0.688374 27.000000
v 4.131335 0.688373 18.981001
vn -0.0000 -0.0000 -1.0000
vn -0.0000 1.0000 -0.0000
vn 1.0000 -0.0000 -0.0000
vn -1.0000 -0.0000 -0.0000
vn -0.0000 -1.0000 -0.0000
vn -0.0000 -0.0000 -0.0000
vn -0.0000 -0.0000 1.0000
vt 0.568514 0.000000
vt 1.000000 0.000000
vt 1.000000 1.000000
vt 0.568723 1.000000
vt 0.000000 1.000000
vt 0.431277 1.000000
vt 0.431144 1.000000
vt 0.000000 0.000000
vt 0.431486 0.000000
vt 0.431486 1.000000
vt 0.431144 0.000000
vt 0.406063 1.000000
vt 0.406244 0.000000
vt 0.406529 1.000000
vt 0.406245 1.000000
vt 0.593755 0.000000
vt 0.593471 1.000000
vt 0.593937 1.000000
vt 0.593755 1.000000
vt 0.000000 0.593471
vt 1.000000 0.593471
vt 0.568856 1.000000
vt 0.568856 0.000000
vt 0.568514 1.000000
vt 0.000000 0.406529
vt 1.000000 0.406529
s 1
usemtl Material.001
f 28/1/1 3/2/1 7/3/1 31/4/1
s 0
f 8/5/2 32/6/2 35/7/2 12/5/1
s 1
f 2/8/3 4/2/3 8/3/3 6/5/3
f 3/8/4 1/2/4 5/3/4 7/5/4
f 4/8/1 27/9/1 32/6/1 8/5/1
f 1/8/5 3/5/5 28/10/5 25/9/5
f 10/8/2 34/11/2 37/12/2 14/5/2
s 0
f 5/5/2 29/6/2 34/7/2 10/5/1
f 6/5/6 8/3/6 12/3/6 11/5/6
f 7/5/6 5/3/6 10/3/6 9/5/6
f 15/5/6 16/3/6 20/3/6 19/5/6
s 1
f 11/8/2 12/2/2 16/3/2 15/5/2
f 9/8/2 10/2/2 14/3/2 13/5/2
f 12/8/2 35/11/2 39/12/2 16/5/2
f 20/8/1 44/13/1 47/14/1 24/5/1
s 0
f 13/5/6 14/3/6 18/3/6 17/5/6
s 1
f 16/5/5 39/12/5 44/15/5 20/5/1
f 14/5/5 37/12/5 41/15/5 18/5/7
f 18/8/7 41/13/7 45/14/7 22/5/7
f 19/8/3 20/2/3 24/3/3 23/5/3
f 17/8/4 18/2/4 22/3/4 21/5/4
f 22/8/2 45/2/2 48/3/2 21/5/2
f 43/16/1 17/2/1 21/3/1 48/17/1
f 40/18/5 13/3/1 17/3/5 43/19/5
f 42/16/7 19/2/7 23/3/7 46/17/7
f 47/20/2 46/21/2 23/3/2 24/5/2
f 38/18/5 15/3/7 19/3/5 42/19/5
s 0
f 31/4/2 7/3/1 9/3/2 36/22/2
s 1
f 36/23/2 9/2/2 13/3/2 40/18/2
f 26/1/5 27/24/5 4/3/5 2/2/5
s 0
f 30/4/2 6/3/1 11/3/2 33/22/2
s 1
f 33/23/2 11/2/2 15/3/2 38/18/2
f 1/8/7 25/9/7 29/6/7 5/5/7
f 46/21/2 47/20/2 48/25/2 45/26/2
f 38/18/2 42/19/2 41/15/2 37/12/2
f 40/18/2 43/19/2 44/15/2 39/12/2
f 43/16/1 48/17/1 47/14/1 44/13/1
f 36/23/2 40/18/2 39/12/2 35/11/2
f 33/8/4 38/2/4 54/3/4 53/5/4
f 28/1/1 31/4/1 32/6/1 27/9/1
f 31/4/5 36/22/5 35/7/5 32/6/5
f 27/24/5 26/1/5 25/9/5 28/10/5
f 26/1/7 2/2/7 6/3/7 30/4/7
s 0
f 37/12/6 34/11/6 49/11/6 50/12/6
s 1
f 50/8/3 49/2/3 51/3/3 52/5/3
