# Blender 4.4.3
# www.blender.org
mtllib monticulo-12-Rancho_techo.mtl
o Rancho_techo
v -16.165627 8.273010 -13.447192
v -16.165627 8.273012 13.447190
v -16.165627 8.273010 -13.447192
v -16.165627 8.273012 13.447190
v 15.951653 8.273012 13.447190
v 15.951653 8.273010 -13.447192
v -11.234480 11.909322 -0.000001
v 15.951653 8.273012 13.447190
v 11.020505 11.909322 -0.000001
v 15.951653 8.273010 -13.447192
v 15.951653 8.273012 13.447190
v 15.951653 8.273010 -13.447192
v 11.020505 11.909322 -0.000001
vn -0.0000 0.9653 0.2610
vn -0.0000 0.9653 -0.2610
vn 0.5935 0.8048 -0.0000
vn 0.5935 -0.8048 -0.0000
vt 0.006870 0.998056
vt -0.003548 0.003523
vt 1.005631 -0.002445
vt 1.002401 0.999212
vt 0.998739 0.004946
vt 0.995054 1.004940
vt -0.004940 1.001254
vt -0.001254 0.001261
vt 0.924698 0.848648
vt 1.005491 -0.010083
vt -0.004857 -0.006277
vt 0.006709 1.000642
vt 0.565189 0.997943
vt 0.995976 1.003247
vt 1.003188 -0.003174
vt 0.002825 -0.007956
vt 0.009641 0.996377
vt 0.512513 0.997976
s 1
usemtl Material.002
f 7/1/1 4/2/1 5/3/1 9/4/1
f 3/5/2 7/6/2 9/7/2 6/8/2
f 8/9/3 11/10/3 10/11/3 12/12/3 13/13/3
f 1/14/4 2/15/4 3/16/4 7/17/4 4/18/4
