# Blender 4.4.3
# www.blender.org
mtllib monticulo-12-Gradas.mtl
o Gradas
v -3.469551 0.000002 27.880945
v 3.469551 0.000002 27.880945
v -3.469551 0.000002 27.880945
v 3.469551 0.000002 27.880945
v -3.469551 0.350002 27.880945
v 3.469551 0.350002 27.880945
v -3.469551 0.350002 27.580944
v 3.469551 0.350002 27.580944
v -3.469551 0.350002 27.880945
v 3.469551 0.350002 27.880945
v -3.469551 0.350002 27.580944
v 3.469551 0.350002 27.580944
v -3.469551 0.200002 27.880945
v 3.469551 0.200002 27.880945
v -3.469551 0.200002 27.580944
v 3.469551 0.200002 27.580944
v -3.469551 0.182352 27.573744
v 3.469551 0.182352 27.573744
v -3.469551 0.182352 27.573744
v 3.469551 0.182352 27.573744
v -3.469551 0.532352 27.573744
v 3.469551 0.532352 27.573744
v -3.469551 0.532352 27.273743
v 3.469551 0.532352 27.273743
v -3.469551 0.532352 27.573744
v 3.469551 0.532352 27.573744
v -3.469551 0.532352 27.273743
v 3.469551 0.532352 27.273743
v -3.469551 0.382352 27.573744
v 3.469551 0.382352 27.573744
v -3.469551 0.382352 27.273743
v 3.469551 0.382352 27.273743
v -3.469551 0.364702 27.266542
v 3.469551 0.364702 27.266542
v -3.469551 0.364702 27.266542
v 3.469551 0.364702 27.266542
v -3.469551 0.714702 27.266542
v 3.469551 0.714702 27.266542
v -3.469551 0.714702 26.966541
v 3.469551 0.714702 26.966541
v -3.469551 0.714702 27.266542
v 3.469551 0.714702 27.266542
v -3.469551 0.714702 26.966541
v 3.469551 0.714702 26.966541
v -3.469551 0.564702 27.266542
v 3.469551 0.564702 27.266542
v -3.469551 0.564702 26.966541
v 3.469551 0.564702 26.966541
v -3.469551 0.547052 26.959343
v 3.469551 0.547052 26.959343
v -3.469551 0.547052 26.959343
v 3.469551 0.547052 26.959343
v -3.469551 0.897052 26.959343
v 3.469551 0.897052 26.959343
v -3.469551 0.897052 26.659342
v 3.469551 0.897052 26.659342
v -3.469551 0.897052 26.959343
v 3.469551 0.897052 26.959343
v -3.469551 0.897052 26.659342
v 3.469551 0.897052 26.659342
v -3.469551 0.747052 26.959343
v 3.469551 0.747052 26.959343
v -3.469551 0.747052 26.659342
v 3.469551 0.747052 26.659342
v -3.469551 0.729402 26.652142
v 3.469551 0.729402 26.652142
v -3.469551 0.729402 26.652142
v 3.469551 0.729402 26.652142
v -3.469551 1.079402 26.652142
v 3.469551 1.079402 26.652142
v -3.469551 1.079402 26.352140
v 3.469551 1.079402 26.352140
v -3.469551 1.079402 26.652142
v 3.469551 1.079402 26.652142
v -3.469551 1.079402 26.352140
v 3.469551 1.079402 26.352140
v -3.469551 0.929402 26.652142
v 3.469551 0.929402 26.652142
v -3.469551 0.929402 26.352140
v 3.469551 0.929402 26.352140
v -3.469551 0.911752 26.344940
v 3.469551 0.911752 26.344940
v -3.469551 0.911752 26.344940
v 3.469551 0.911752 26.344940
v -3.469551 1.261752 26.344940
v 3.469551 1.261752 26.344940
v -3.469551 1.261752 26.044939
v 3.469551 1.261752 26.044939
v -3.469551 1.261752 26.344940
v 3.469551 1.261752 26.344940
v -3.469551 1.261752 26.044939
v 3.469551 1.261752 26.044939
v -3.469551 1.111752 26.344940
v 3.469551 1.111752 26.344940
v -3.469551 1.111752 26.044939
v 3.469551 1.111752 26.044939
v -3.469551 1.094102 26.037739
v 3.469551 1.094102 26.037739
v -3.469551 1.094102 26.037739
v 3.469551 1.094102 26.037739
v -3.469551 1.444102 26.037739
v 3.469551 1.444102 26.037739
v -3.469551 1.444102 25.737738
v 3.469551 1.444102 25.737738
v -3.469551 1.444102 26.037739
v 3.469551 1.444102 26.037739
v -3.469551 1.444102 25.737738
v 3.469551 1.444102 25.737738
v -3.469551 1.294102 26.037739
v 3.469551 1.294102 26.037739
v -3.469551 1.294102 25.737738
v 3.469551 1.294102 25.737738
v -3.469551 1.276452 25.730537
v 3.469551 1.276452 25.730537
v -3.469551 1.276452 25.730537
v 3.469551 1.276452 25.730537
v -3.469551 1.626452 25.730537
v 3.469551 1.626452 25.730537
v -3.469551 1.626452 25.430538
v 3.469551 1.626452 25.430538
v -3.469551 1.626452 25.730537
v 3.469551 1.626452 25.730537
v -3.469551 1.626452 25.430538
v 3.469551 1.626452 25.430538
v -3.469551 1.476452 25.730537
v 3.469551 1.476452 25.730537
v -3.469551 1.476452 25.430538
v 3.469551 1.476452 25.430538
v -3.469551 1.458802 25.423338
v 3.469551 1.458802 25.423338
v -3.469551 1.458802 25.423338
v 3.469551 1.458802 25.423338
v -3.469551 1.808802 25.423338
v 3.469551 1.808802 25.423338
v -3.469551 1.808802 25.123337
v 3.469551 1.808802 25.123337
v -3.469551 1.808802 25.423338
v 3.469551 1.808802 25.423338
v -3.469551 1.808802 25.123337
v 3.469551 1.808802 25.123337
v -3.469551 1.658802 25.423338
v 3.469551 1.658802 25.423338
v -3.469551 1.658802 25.123337
v 3.469551 1.658802 25.123337
v -3.469551 1.641152 25.116137
v 3.469551 1.641152 25.116137
v -3.469551 1.641152 25.116137
v 3.469551 1.641152 25.116137
v -3.469551 1.991152 25.116137
v 3.469551 1.991152 25.116137
v -3.469551 1.991152 24.816135
v 3.469551 1.991152 24.816135
v -3.469551 1.991152 25.116137
v 3.469551 1.991152 25.116137
v -3.469551 1.991152 24.816135
v 3.469551 1.991152 24.816135
v -3.469551 1.841152 25.116137
v 3.469551 1.841152 25.116137
v -3.469551 1.841152 24.816135
v 3.469551 1.841152 24.816135
v -3.469551 1.823502 24.808935
v 3.469551 1.823502 24.808935
v -3.469551 1.823502 24.808935
v 3.469551 1.823502 24.808935
v -3.469551 2.173502 24.808935
v 3.469551 2.173502 24.808935
v -3.469551 2.173502 24.508934
v 3.469551 2.173502 24.508934
v -3.469551 2.173502 24.808935
v 3.469551 2.173502 24.808935
v -3.469551 2.173502 24.508934
v 3.469551 2.173502 24.508934
v -3.469551 2.023502 24.808935
v 3.469551 2.023502 24.808935
v -3.469551 2.023502 24.508934
v 3.469551 2.023502 24.508934
v -3.469551 2.005852 24.501736
v 3.469551 2.005852 24.501736
v -3.469551 2.005852 24.501736
v 3.469551 2.005852 24.501736
v -3.469551 2.355852 24.501736
v 3.469551 2.355852 24.501736
v -3.469551 2.355852 24.201735
v 3.469551 2.355852 24.201735
v -3.469551 2.355852 24.501736
v 3.469551 2.355852 24.501736
v -3.469551 2.355852 24.201735
v 3.469551 2.355852 24.201735
v -3.469551 2.205852 24.501736
v 3.469551 2.205852 24.501736
v -3.469551 2.205852 24.201735
v 3.469551 2.205852 24.201735
v -3.469551 2.188202 24.194534
v 3.469551 2.188202 24.194534
v -3.469551 2.188202 24.194534
v 3.469551 2.188202 24.194534
v -3.469551 2.538202 24.194534
v 3.469551 2.538202 24.194534
v -3.469551 2.538202 23.894533
v 3.469551 2.538202 23.894533
v -3.469551 2.538202 24.194534
v 3.469551 2.538202 24.194534
v -3.469551 2.538202 23.894533
v 3.469551 2.538202 23.894533
v -3.469551 2.388203 24.194534
v 3.469551 2.388203 24.194534
v -3.469551 2.388203 23.894533
v 3.469551 2.388203 23.894533
v -3.469551 2.370552 23.887333
v 3.469551 2.370552 23.887333
v -3.469551 2.370552 23.887333
v 3.469551 2.370552 23.887333
v -3.469551 2.720552 23.887333
v 3.469551 2.720552 23.887333
v -3.469551 2.720552 23.587332
v 3.469551 2.720552 23.587332
v -3.469551 2.720552 23.887333
v 3.469551 2.720552 23.887333
v -3.469551 2.720552 23.587332
v 3.469551 2.720552 23.587332
v -3.469551 2.570552 23.887333
v 3.469551 2.570552 23.887333
v -3.469551 2.570552 23.587332
v 3.469551 2.570552 23.587332
v -3.469551 2.552903 23.580132
v 3.469551 2.552903 23.580132
v -3.469551 2.552903 23.580132
v 3.469551 2.552903 23.580132
v -3.469551 2.902902 23.580132
v 3.469551 2.902902 23.580132
v -3.469551 2.902902 23.280130
v 3.469551 2.902902 23.280130
v -3.469551 2.902902 23.580132
v 3.469551 2.902902 23.580132
v -3.469551 2.902902 23.280130
v 3.469551 2.902902 23.280130
v -3.469551 2.752903 23.580132
v 3.469551 2.752903 23.580132
v -3.469551 2.752903 23.280130
v 3.469551 2.752903 23.280130
v -3.469551 2.735252 23.272930
v 3.469551 2.735252 23.272930
v -3.469551 2.735252 23.272930
v 3.469551 2.735252 23.272930
v -3.469551 3.085252 23.272930
v 3.469551 3.085252 23.272930
v -3.469551 3.085252 22.972931
v 3.469551 3.085252 22.972931
v -3.469551 3.085252 23.272930
v 3.469551 3.085252 23.272930
v -3.469551 3.085252 22.972931
v 3.469551 3.085252 22.972931
v -3.469551 2.935253 23.272930
v 3.469551 2.935253 23.272930
v -3.469551 2.935253 22.972931
v 3.469551 2.935253 22.972931
v -3.469551 2.917603 22.965731
v 3.469551 2.917603 22.965731
v -3.469551 2.917603 22.965731
v 3.469551 2.917603 22.965731
v -3.469551 3.267603 22.965731
v 3.469551 3.267603 22.965731
v -3.469551 3.267603 22.665730
v 3.469551 3.267603 22.665730
v -3.469551 3.267603 22.965731
v 3.469551 3.267603 22.965731
v -3.469551 3.267603 22.665730
v 3.469551 3.267603 22.665730
v -3.469551 3.117603 22.965731
v 3.469551 3.117603 22.965731
v -3.469551 3.117603 22.665730
v 3.469551 3.117603 22.665730
v -3.469551 3.099953 22.658529
v 3.469551 3.099953 22.658529
v -3.469551 3.099953 22.658529
v 3.469551 3.099953 22.658529
v -3.469551 3.449952 22.658529
v 3.469551 3.449952 22.658529
v -3.469551 3.449952 22.358528
v 3.469551 3.449952 22.358528
v -3.469551 3.449952 22.658529
v 3.469551 3.449952 22.658529
v -3.469551 3.449952 22.358528
v 3.469551 3.449952 22.358528
v -3.469551 3.299953 22.658529
v 3.469551 3.299953 22.658529
v -3.469551 3.299953 22.358528
v 3.469551 3.299953 22.358528
v -3.469551 3.282303 22.351328
v 3.469551 3.282303 22.351328
v -3.469551 3.282303 22.351328
v 3.469551 3.282303 22.351328
v -3.469551 3.632303 22.351328
v 3.469551 3.632303 22.351328
v -3.469551 3.632303 22.051327
v 3.469551 3.632303 22.051327
v -3.469551 3.632303 22.351328
v 3.469551 3.632303 22.351328
v -3.469551 3.632303 22.051327
v 3.469551 3.632303 22.051327
v -3.469551 3.482303 22.351328
v 3.469551 3.482303 22.351328
v -3.469551 3.482303 22.051327
v 3.469551 3.482303 22.051327
v -3.469551 3.464653 22.044128
v 3.469551 3.464653 22.044128
v -3.469551 3.464653 22.044128
v 3.469551 3.464653 22.044128
v -3.469551 3.814653 22.044128
v 3.469551 3.814653 22.044128
v -3.469551 3.814653 21.744127
v 3.469551 3.814653 21.744127
v -3.469551 3.814653 22.044128
v 3.469551 3.814653 22.044128
v -3.469551 3.814653 21.744127
v 3.469551 3.814653 21.744127
v -3.469551 3.664653 22.044128
v 3.469551 3.664653 22.044128
v -3.469551 3.664653 21.744127
v 3.469551 3.664653 21.744127
v -3.469551 3.647003 21.736927
v 3.469551 3.647003 21.736927
v -3.469551 3.647003 21.736927
v 3.469551 3.647003 21.736927
v -3.469551 3.997002 21.736927
v 3.469551 3.997002 21.736927
v -3.469551 3.997002 21.436926
v 3.469551 3.997002 21.436926
v -3.469551 3.997002 21.736927
v 3.469551 3.997002 21.736927
v -3.469551 3.997002 21.436926
v 3.469551 3.997002 21.436926
v -3.469551 3.847002 21.736927
v 3.469551 3.847002 21.736927
v -3.469551 3.847002 21.436926
v 3.469551 3.847002 21.436926
v -3.469551 3.829352 21.429726
v 3.469551 3.829352 21.429726
v -3.469551 3.829352 21.429726
v 3.469551 3.829352 21.429726
v -3.469551 4.179351 21.429726
v 3.469551 4.179351 21.429726
v -3.469551 4.179351 21.129725
v 3.469551 4.179351 21.129725
v -3.469551 4.179351 21.429726
v 3.469551 4.179351 21.429726
v -3.469551 4.179351 21.129725
v 3.469551 4.179351 21.129725
v -3.469551 4.029351 21.429726
v 3.469551 4.029351 21.429726
v -3.469551 4.029351 21.129725
v 3.469551 4.029351 21.129725
v -3.469551 4.011702 21.122524
v 3.469551 4.011702 21.122524
v -3.469551 4.011702 21.122524
v 3.469551 4.011702 21.122524
v -3.469551 4.361701 21.122524
v 3.469551 4.361701 21.122524
v -3.469551 4.361701 20.822523
v 3.469551 4.361701 20.822523
v -3.469551 4.361701 21.122524
v 3.469551 4.361701 21.122524
v -3.469551 4.361701 20.822523
v 3.469551 4.361701 20.822523
v -3.469551 4.211701 21.122524
v 3.469551 4.211701 21.122524
v -3.469551 4.211701 20.822523
v 3.469551 4.211701 20.822523
v -3.469551 4.194051 20.815323
v 3.469551 4.194051 20.815323
v -3.469551 4.194051 20.815323
v 3.469551 4.194051 20.815323
v -3.469551 4.544052 20.815323
v 3.469551 4.544052 20.815323
v -3.469551 4.544052 20.515324
v 3.469551 4.544052 20.515324
v -3.469551 4.544052 20.815323
v 3.469551 4.544052 20.815323
v -3.469551 4.544052 20.515324
v 3.469551 4.544052 20.515324
v -3.469551 4.394052 20.815323
v 3.469551 4.394052 20.815323
v -3.469551 4.394052 20.515324
v 3.469551 4.394052 20.515324
v -3.469551 4.376401 20.508123
v 3.469551 4.376401 20.508123
v -3.469551 4.376401 20.508123
v 3.469551 4.376401 20.508123
v -3.469551 4.726401 20.508123
v 3.469551 4.726401 20.508123
v -3.469551 4.726401 20.208122
v 3.469551 4.726401 20.208122
v -3.469551 4.726401 20.508123
v 3.469551 4.726401 20.508123
v -3.469551 4.726401 20.208122
v 3.469551 4.726401 20.208122
v -3.469551 4.576401 20.508123
v 3.469551 4.576401 20.508123
v -3.469551 4.576401 20.208122
v 3.469551 4.576401 20.208122
v -3.469551 4.558752 20.200922
v 3.469551 4.558752 20.200922
v -3.469551 4.558752 20.200922
v 3.469551 4.558752 20.200922
v -3.469551 4.908751 20.200922
v 3.469551 4.908751 20.200922
v -3.469551 4.908751 19.900921
v 3.469551 4.908751 19.900921
v -3.469551 4.908751 20.200922
v 3.469551 4.908751 20.200922
v -3.469551 4.908751 19.900921
v 3.469551 4.908751 19.900921
v -3.469551 4.758750 20.200922
v 3.469551 4.758750 20.200922
v -3.469551 4.758750 19.900921
v 3.469551 4.758750 19.900921
v -3.469551 4.741100 19.893721
v 3.469551 4.741100 19.893721
v -3.469551 4.741100 19.893721
v 3.469551 4.741100 19.893721
v -3.469551 5.091100 19.893721
v 3.469551 5.091100 19.893721
v -3.469551 5.091100 19.593719
v 3.469551 5.091100 19.593719
v -3.469551 5.091100 19.893721
v 3.469551 5.091100 19.893721
v -3.469551 5.091100 19.593719
v 3.469551 5.091100 19.593719
v -3.469551 4.941102 19.893721
v 3.469551 4.941102 19.893721
v -3.469551 4.941102 19.593719
v 3.469551 4.941102 19.593719
v -3.469551 4.923451 19.586521
v 3.469551 4.923451 19.586521
v -3.469551 4.923451 19.586521
v 3.469551 4.923451 19.586521
v -3.469551 5.273450 19.586521
v 3.469551 5.273450 19.586521
v -3.469551 5.273450 19.286520
v 3.469551 5.273450 19.286520
v -3.469551 5.273450 19.586521
v 3.469551 5.273450 19.586521
v -3.469551 5.273450 19.286520
v 3.469551 5.273450 19.286520
v -3.469551 5.123450 19.586521
v 3.469551 5.123450 19.586521
v -3.469551 5.123450 19.286520
v 3.469551 5.123450 19.286520
v -3.469551 5.105801 19.279320
v 3.469551 5.105801 19.279320
v -3.469551 5.105801 19.279320
v 3.469551 5.105801 19.279320
v -3.469551 5.455801 19.279320
v 3.469551 5.455801 19.279320
v -3.469551 5.455801 18.979319
v 3.469551 5.455801 18.979319
v -3.469551 5.455801 19.279320
v 3.469551 5.455801 19.279320
v -3.469551 5.455801 18.979319
v 3.469551 5.455801 18.979319
v -3.469551 5.305800 19.279320
v 3.469551 5.305800 19.279320
v -3.469551 5.305800 18.979319
v 3.469551 5.305800 18.979319
v -3.469551 5.288150 18.972118
v 3.469551 5.288150 18.972118
v -3.469551 5.288150 18.972118
v 3.469551 5.288150 18.972118
v -3.469551 5.638150 18.972118
v 3.469551 5.638150 18.972118
v -3.469551 5.638150 18.672117
v 3.469551 5.638150 18.672117
v -3.469551 5.638150 18.972118
v 3.469551 5.638150 18.972118
v -3.469551 5.638150 18.672117
v 3.469551 5.638150 18.672117
v -3.469551 5.488151 18.972118
v 3.469551 5.488151 18.972118
v -3.469551 5.488151 18.672117
v 3.469551 5.488151 18.672117
vn -0.0000 1.0000 -0.0000
vn -0.0000 -0.0000 -1.0000
vn -0.0000 -1.0000 -0.0000
vt 0.000000 0.000000
vt 1.000000 0.000000
vt 1.000000 1.000000
vt 0.000000 1.000000
s 0
usemtl Material.001
f 2/1/1 1/1/2 3/1/1 4/1/2
s 1
f 4/1/2 3/2/2 13/3/2 14/4/2
f 14/1/3 13/2/3 15/3/3 16/4/3
s 0
f 18/1/1 17/1/2 19/1/1 20/1/2
s 1
f 20/1/2 19/2/2 29/3/2 30/4/2
f 30/1/3 29/2/3 31/3/3 32/4/3
s 0
f 34/1/1 33/1/2 35/1/1 36/1/2
s 1
f 36/1/2 35/2/2 45/3/2 46/4/2
f 46/1/3 45/2/3 47/3/3 48/4/3
s 0
f 50/1/1 49/1/2 51/1/1 52/1/2
s 1
f 52/1/2 51/2/2 61/3/2 62/4/2
f 62/1/3 61/2/3 63/3/3 64/4/3
s 0
f 66/1/1 65/1/2 67/1/1 68/1/2
s 1
f 68/1/2 67/2/2 77/3/2 78/4/2
f 78/1/3 77/2/3 79/3/3 80/4/3
s 0
f 82/1/1 81/1/2 83/1/1 84/1/2
s 1
f 84/1/2 83/2/2 93/3/2 94/4/2
f 94/1/3 93/2/3 95/3/3 96/4/3
s 0
f 98/1/1 97/1/2 99/1/1 100/1/2
s 1
f 100/1/2 99/2/2 109/3/2 110/4/2
f 110/1/3 109/2/3 111/3/3 112/4/3
s 0
f 114/1/1 113/1/2 115/1/1 116/1/2
s 1
f 116/1/2 115/2/2 125/3/2 126/4/2
f 126/1/3 125/2/3 127/3/3 128/4/3
s 0
f 130/1/1 129/1/2 131/1/1 132/1/2
s 1
f 132/1/2 131/2/2 141/3/2 142/4/2
f 142/1/3 141/2/3 143/3/3 144/4/3
s 0
f 146/1/1 145/1/2 147/1/1 148/1/2
s 1
f 148/1/2 147/2/2 157/3/2 158/4/2
f 158/1/3 157/2/3 159/3/3 160/4/3
s 0
f 162/1/1 161/1/2 163/1/1 164/1/2
s 1
f 164/1/2 163/2/2 173/3/2 174/4/2
f 174/1/3 173/2/3 175/3/3 176/4/3
s 0
f 178/1/1 177/1/2 179/1/1 180/1/2
s 1
f 180/1/2 179/2/2 189/3/2 190/4/2
f 190/1/3 189/2/3 191/3/3 192/4/3
s 0
f 194/1/1 193/1/2 195/1/1 196/1/2
s 1
f 196/1/2 195/2/2 205/3/2 206/4/2
f 206/1/3 205/2/3 207/3/3 208/4/3
s 0
f 210/1/1 209/1/2 211/1/1 212/1/2
s 1
f 212/1/2 211/2/2 221/3/2 222/4/2
f 222/1/3 221/2/3 223/3/3 224/4/3
s 0
f 226/1/1 225/1/2 227/1/1 228/1/2
s 1
f 228/1/2 227/2/2 237/3/2 238/4/2
f 238/1/3 237/2/3 239/3/3 240/4/3
s 0
f 242/1/1 241/1/2 243/1/1 244/1/2
s 1
f 244/1/2 243/2/2 253/3/2 254/4/2
f 254/1/3 253/2/3 255/3/3 256/4/3
s 0
f 258/1/1 257/1/2 259/1/1 260/1/2
s 1
f 260/1/2 259/2/2 269/3/2 270/4/2
f 270/1/3 269/2/3 271/3/3 272/4/3
s 0
f 274/1/1 273/1/2 275/1/1 276/1/2
s 1
f 276/1/2 275/2/2 285/3/2 286/4/2
f 286/1/3 285/2/3 287/3/3 288/4/3
s 0
f 290/1/1 289/1/2 291/1/1 292/1/2
s 1
f 292/1/2 291/2/2 301/3/2 302/4/2
f 302/1/3 301/2/3 303/3/3 304/4/3
s 0
f 306/1/1 305/1/2 307/1/1 308/1/2
s 1
f 308/1/2 307/2/2 317/3/2 318/4/2
f 318/1/3 317/2/3 319/3/3 320/4/3
s 0
f 322/1/1 321/1/2 323/1/1 324/1/2
s 1
f 324/1/2 323/2/2 333/3/2 334/4/2
f 334/1/3 333/2/3 335/3/3 336/4/3
s 0
f 338/1/1 337/1/2 339/1/1 340/1/2
s 1
f 340/1/2 339/2/2 349/3/2 350/4/2
f 350/1/3 349/2/3 351/3/3 352/4/3
s 0
f 354/1/1 353/1/2 355/1/1 356/1/2
s 1
f 356/1/2 355/2/2 365/3/2 366/4/2
f 366/1/3 365/2/3 367/3/3 368/4/3
s 0
f 370/1/1 369/1/2 371/1/1 372/1/2
s 1
f 372/1/2 371/2/2 381/3/2 382/4/2
f 382/1/3 381/2/3 383/3/3 384/4/3
s 0
f 386/1/1 385/1/2 387/1/1 388/1/2
s 1
f 388/1/2 387/2/2 397/3/2 398/4/2
f 398/1/3 397/2/3 399/3/3 400/4/3
s 0
f 402/1/1 401/1/2 403/1/1 404/1/2
s 1
f 404/1/2 403/2/2 413/3/2 414/4/2
f 414/1/3 413/2/3 415/3/3 416/4/3
s 0
f 418/1/1 417/1/2 419/1/1 420/1/2
s 1
f 420/1/2 419/2/2 429/3/2 430/4/2
f 430/1/3 429/2/3 431/3/3 432/4/3
s 0
f 434/1/1 433/1/2 435/1/1 436/1/2
s 1
f 436/1/2 435/2/2 445/3/2 446/4/2
f 446/1/3 445/2/3 447/3/3 448/4/3
s 0
f 450/1/1 449/1/2 451/1/1 452/1/2
s 1
f 452/1/2 451/2/2 461/3/2 462/4/2
f 462/1/3 461/2/3 463/3/3 464/4/3
s 0
f 466/1/1 465/1/2 467/1/1 468/1/2
s 1
f 468/1/2 467/2/2 477/3/2 478/4/2
f 478/1/3 477/2/3 479/3/3 480/4/3
l 7 11
l 5 9
l 8 12
l 6 10
l 23 27
l 21 25
l 24 28
l 22 26
l 39 43
l 37 41
l 40 44
l 38 42
l 55 59
l 53 57
l 56 60
l 54 58
l 71 75
l 69 73
l 72 76
l 70 74
l 87 91
l 85 89
l 88 92
l 86 90
l 103 107
l 101 105
l 104 108
l 102 106
l 119 123
l 117 121
l 120 124
l 118 122
l 135 139
l 133 137
l 136 140
l 134 138
l 151 155
l 149 153
l 152 156
l 150 154
l 167 171
l 165 169
l 168 172
l 166 170
l 183 187
l 181 185
l 184 188
l 182 186
l 199 203
l 197 201
l 200 204
l 198 202
l 215 219
l 213 217
l 216 220
l 214 218
l 231 235
l 229 233
l 232 236
l 230 234
l 247 251
l 245 249
l 248 252
l 246 250
l 263 267
l 261 265
l 264 268
l 262 266
l 279 283
l 277 281
l 280 284
l 278 282
l 295 299
l 293 297
l 296 300
l 294 298
l 311 315
l 309 313
l 312 316
l 310 314
l 327 331
l 325 329
l 328 332
l 326 330
l 343 347
l 341 345
l 344 348
l 342 346
l 359 363
l 357 361
l 360 364
l 358 362
l 375 379
l 373 377
l 376 380
l 374 378
l 391 395
l 389 393
l 392 396
l 390 394
l 407 411
l 405 409
l 408 412
l 406 410
l 423 427
l 421 425
l 424 428
l 422 426
l 439 443
l 437 441
l 440 444
l 438 442
l 455 459
l 453 457
l 456 460
l 454 458
l 471 475
l 469 473
l 472 476
l 470 474
