# Blender 4.4.3
# www.blender.org
mtllib monticulo-12-Templo_3.mtl
o Templo_3
v -18.491592 5.499999 -15.484499
v -18.491592 5.500001 15.484499
v 18.491592 5.500001 15.484499
v 18.491592 5.499999 -15.484499
v -18.491592 5.999999 -15.484499
v -18.491592 6.000001 15.484499
v 18.491592 6.000001 15.484499
v 18.491592 5.999999 -15.484499
vn -0.0000 -0.0000 -1.0000
vn -0.0000 -0.0000 1.0000
vn 1.0000 -0.0000 -0.0000
vn -1.0000 -0.0000 -0.0000
vn -0.0000 1.0000 -0.0000
vt 0.000000 0.000000
vt 1.000000 0.000000
vt 1.000000 1.000000
vt 0.000000 1.000000
s 1
usemtl Material.001
f 4/1/1 1/2/1 5/3/1 8/4/1
f 2/1/2 3/2/2 7/3/2 6/4/2
f 3/1/3 4/2/3 8/3/3 7/4/3
f 1/1/4 2/2/4 6/3/4 5/4/4
f 5/1/5 6/2/5 7/3/5 8/4/5
