# Blender 4.4.3
# www.blender.org
mtllib monticulo-14-Talud_1.mtl
o Talud_1
v -23.400000 0.000001 17.799999
v 23.400000 0.000001 17.799999
v -23.400000 -0.000001 -17.799999
v 23.400000 -0.000001 -17.799999
v -22.387691 1.599999 -17.029953
v -22.387691 1.600001 17.029953
v 22.387691 1.600001 17.029953
v 22.387691 1.599999 -17.029953
v 5.030088 0.000001 17.799999
v -5.030088 0.000001 17.799999
v -5.030088 1.600001 17.029953
v 5.030088 1.600001 17.029953
v 5.011615 1.599999 -17.029953
v -5.011615 1.599999 -17.029953
v -5.011616 -0.000001 -17.799999
v 5.011615 -0.000001 -17.799999
vn -0.0000 0.4337 0.9011
vn 0.8451 0.5347 -0.0000
vn -0.8451 0.5347 -0.0000
vn -0.0000 0.4337 -0.9011
vt 0.000000 0.000000
vt 0.392519 0.000000
vt 0.387660 1.000000
vt 0.000000 1.000000
vt 1.000000 0.000000
vt 1.000000 1.000000
vt 0.607481 0.000000
vt 0.612340 1.000000
vt 0.388072 1.000000
vt 0.392914 0.000000
vt 0.607086 0.000000
vt 0.611928 1.000000
s 1
usemtl Material.001
f 1/1/1 10/2/1 11/3/1 6/4/1
f 2/1/2 4/5/2 8/6/2 7/4/2
f 3/1/3 1/5/3 6/6/3 5/4/3
f 9/7/1 2/5/1 7/6/1 12/8/1
f 14/9/4 15/10/4 3/1/4 5/4/4
f 8/6/4 4/5/4 16/11/4 13/12/4
