# Blender 4.4.3
# www.blender.org
mtllib monticulo-14-Gradas.mtl
o Gradas
v 4.376103 0.003743 18.382448
v -4.383650 0.003743 18.382448
v 4.376103 0.410053 18.382448
v -4.383650 0.410053 18.382448
v 4.376103 0.410053 18.022449
v -4.383650 0.410053 18.022449
v -4.383650 0.003743 18.071466
v -4.383650 0.410053 18.071466
v 4.376103 0.003743 18.038073
v 4.376103 0.410053 18.038073
v 4.376103 0.410053 18.022449
v -4.383650 0.410053 18.022449
v 4.376103 0.816362 18.022449
v -4.383650 0.816362 18.022449
v 4.376103 0.816362 17.662451
v -4.383650 0.816362 17.662451
v -4.383650 0.410053 17.711468
v -4.383650 0.816362 17.711468
v 4.376103 0.410053 17.678074
v 4.376103 0.816362 17.678074
v 4.376103 0.816362 17.662451
v -4.383650 0.816362 17.662451
v 4.376103 1.222672 17.662451
v -4.383650 1.222672 17.662451
v 4.376103 1.222672 17.302452
v -4.383650 1.222672 17.302452
v -4.383650 0.816362 17.351469
v -4.383650 1.222672 17.351469
v 4.376103 0.816362 17.318075
v 4.376103 1.222672 17.318075
v 4.376103 1.222672 17.302452
v -4.383650 1.222672 17.302452
v 4.376103 1.628981 17.302452
v -4.383650 1.628981 17.302452
v 4.376103 1.628981 16.942453
v -4.383650 1.628981 16.942453
v -4.383650 1.222672 16.991470
v -4.383650 1.628981 16.991470
v 4.376103 1.222672 16.958076
v 4.376103 1.628981 16.958076
v 4.376103 1.628981 16.942453
v -4.383650 1.628981 16.942453
v 4.376103 2.035291 16.942453
v -4.383650 2.035291 16.942453
v 4.376103 2.035291 16.582455
v -4.383650 2.035291 16.582455
v -4.383650 1.628981 16.631472
v -4.383650 2.035291 16.631472
v 4.376103 1.628981 16.598078
v 4.376103 2.035291 16.598078
v 4.376103 2.035291 16.582455
v -4.383650 2.035291 16.582455
v 4.376103 2.441600 16.582455
v -4.383650 2.441600 16.582455
v 4.376103 2.441600 16.222456
v -4.383650 2.441600 16.222456
v -4.383650 2.035291 16.271473
v -4.383650 2.441600 16.271473
v 4.376103 2.035291 16.238079
v 4.376103 2.441600 16.238079
v 4.376103 2.441600 16.222456
v -4.383650 2.441600 16.222456
v 4.376103 2.847910 16.222456
v -4.383650 2.847910 16.222456
v 4.376103 2.847910 15.862457
v -4.383650 2.847910 15.862457
v -4.383650 2.441600 15.911474
v -4.383650 2.847910 15.911474
v 4.376103 2.441600 15.878080
v 4.376103 2.847910 15.878080
v 4.376103 2.847910 15.862457
v -4.383650 2.847910 15.862457
v 4.376103 3.254220 15.862457
v -4.383650 3.254220 15.862457
v 4.376103 3.254220 15.502459
v -4.383650 3.254220 15.502459
v -4.383650 2.847910 15.551476
v -4.383650 3.254220 15.551476
v 4.376103 2.847910 15.518082
v 4.376103 3.254220 15.518082
v 4.376103 3.254220 15.502459
v -4.383650 3.254220 15.502459
v 4.376103 3.660529 15.502459
v -4.383650 3.660529 15.502459
v 4.376103 3.660529 15.142460
v -4.383650 3.660529 15.142460
v -4.383650 3.254220 15.191477
v -4.383650 3.660529 15.191477
v 4.376103 3.254220 15.158083
v 4.376103 3.660529 15.158083
v 4.376103 3.660529 15.142460
v -4.383650 3.660529 15.142460
v 4.376103 4.066839 15.142460
v -4.383650 4.066839 15.142460
v 4.376103 4.066839 14.782461
v -4.383650 4.066839 14.782461
v -4.383650 3.660529 14.831478
v -4.383650 4.066839 14.831478
v 4.376103 3.660529 14.798084
v 4.376103 4.066839 14.798084
v 4.376103 4.066839 14.782461
v -4.383650 4.066839 14.782461
v 4.376103 4.473148 14.782461
v -4.383650 4.473148 14.782461
v 4.376103 4.473148 14.422462
v -4.383650 4.473148 14.422462
v -4.383650 4.066839 14.471479
v -4.383650 4.473148 14.471479
v 4.376103 4.066839 14.438086
v 4.376103 4.473148 14.438086
v 4.376103 4.473148 14.422462
v -4.383650 4.473148 14.422462
v 4.376103 4.879458 14.422462
v -4.383650 4.879458 14.422462
v 4.376103 4.879458 14.062464
v -4.383650 4.879458 14.062464
v -4.383650 4.473148 14.111481
v -4.383650 4.879458 14.111481
v 4.376103 4.473148 14.078087
v 4.376103 4.879458 14.078087
v 4.376103 4.879458 14.062464
v -4.383650 4.879458 14.062464
v 4.376103 5.285768 14.062464
v -4.383650 5.285768 14.062464
v 4.376103 5.285768 13.702465
v -4.383650 5.285768 13.702465
v -4.383650 4.879458 13.751482
v -4.383650 5.285768 13.751482
v 4.376103 4.879458 13.718088
v 4.376103 5.285768 13.718088
v 4.376103 5.285768 13.702465
v -4.383650 5.285768 13.702465
v 4.376103 5.692077 13.702465
v -4.383650 5.692077 13.702465
v 4.376103 5.692077 13.342466
v -4.383650 5.692077 13.342466
v -4.383650 5.285768 13.391483
v -4.383650 5.692077 13.391483
v 4.376103 5.285768 13.358089
v 4.376103 5.692077 13.358089
v 4.376103 5.692077 13.342466
v -4.383650 5.692077 13.342466
v 4.376103 6.098387 13.342466
v -4.383650 6.098387 13.342466
v 4.376103 6.098387 12.982468
v -4.383650 6.098387 12.982468
v -4.383650 5.692077 13.031485
v -4.383650 6.098387 13.031485
v 4.376103 5.692077 12.998091
v 4.376103 6.098387 12.998091
v 4.376103 0.003741 -18.382448
v -4.383650 0.003741 -18.382448
v 4.376103 0.410051 -18.382448
v -4.383650 0.410051 -18.382448
v 4.376103 0.410051 -18.022449
v -4.383650 0.410051 -18.022449
v -4.383650 0.003741 -18.071466
v -4.383650 0.410051 -18.071466
v 4.376103 0.003741 -18.038073
v 4.376103 0.410051 -18.038073
v 4.376103 0.410051 -18.022449
v -4.383650 0.410051 -18.022449
v 4.376103 0.816360 -18.022449
v -4.383650 0.816360 -18.022449
v 4.376103 0.816360 -17.662451
v -4.383650 0.816360 -17.662451
v -4.383650 0.410051 -17.711468
v -4.383650 0.816360 -17.711468
v 4.376103 0.410051 -17.678074
v 4.376103 0.816360 -17.678074
v 4.376103 0.816360 -17.662451
v -4.383650 0.816360 -17.662451
v 4.376103 1.222670 -17.662451
v -4.383650 1.222670 -17.662451
v 4.376103 1.222670 -17.302452
v -4.383650 1.222670 -17.302452
v -4.383650 0.816360 -17.351469
v -4.383650 1.222670 -17.351469
v 4.376103 0.816360 -17.318075
v 4.376103 1.222670 -17.318075
v 4.376103 1.222670 -17.302452
v -4.383650 1.222670 -17.302452
v 4.376103 1.628979 -17.302452
v -4.383650 1.628979 -17.302452
v 4.376103 1.628979 -16.942453
v -4.383650 1.628979 -16.942453
v -4.383650 1.222670 -16.991470
v -4.383650 1.628979 -16.991470
v 4.376103 1.222670 -16.958076
v 4.376103 1.628979 -16.958076
v 4.376103 1.628979 -16.942453
v -4.383650 1.628979 -16.942453
v 4.376103 2.035289 -16.942453
v -4.383650 2.035289 -16.942453
v 4.376103 2.035289 -16.582455
v -4.383650 2.035289 -16.582455
v -4.383650 1.628979 -16.631472
v -4.383650 2.035289 -16.631472
v 4.376103 1.628979 -16.598078
v 4.376103 2.035289 -16.598078
v 4.376103 2.035289 -16.582455
v -4.383650 2.035289 -16.582455
v 4.376103 2.441598 -16.582455
v -4.383650 2.441598 -16.582455
v 4.376103 2.441598 -16.222456
v -4.383650 2.441598 -16.222456
v -4.383650 2.035289 -16.271473
v -4.383650 2.441598 -16.271473
v 4.376103 2.035289 -16.238079
v 4.376103 2.441598 -16.238079
v 4.376103 2.441598 -16.222456
v -4.383650 2.441598 -16.222456
v 4.376103 2.847908 -16.222456
v -4.383650 2.847908 -16.222456
v 4.376103 2.847908 -15.862457
v -4.383650 2.847908 -15.862457
v -4.383650 2.441598 -15.911474
v -4.383650 2.847908 -15.911474
v 4.376103 2.441598 -15.878080
v 4.376103 2.847908 -15.878080
v 4.376103 2.847908 -15.862457
v -4.383650 2.847908 -15.862457
v 4.376103 3.254218 -15.862457
v -4.383650 3.254218 -15.862457
v 4.376103 3.254218 -15.502459
v -4.383650 3.254218 -15.502459
v -4.383650 2.847908 -15.551476
v -4.383650 3.254218 -15.551476
v 4.376103 2.847908 -15.518082
v 4.376103 3.254218 -15.518082
v 4.376103 3.254218 -15.502459
v -4.383650 3.254218 -15.502459
v 4.376103 3.660527 -15.502459
v -4.383650 3.660527 -15.502459
v 4.376103 3.660527 -15.142460
v -4.383650 3.660527 -15.142460
v -4.383650 3.254218 -15.191477
v -4.383650 3.660527 -15.191477
v 4.376103 3.254218 -15.158083
v 4.376103 3.660527 -15.158083
v 4.376103 3.660527 -15.142460
v -4.383650 3.660527 -15.142460
v 4.376103 4.066837 -15.142460
v -4.383650 4.066837 -15.142460
v 4.376103 4.066837 -14.782461
v -4.383650 4.066837 -14.782461
v -4.383650 3.660527 -14.831478
v -4.383650 4.066837 -14.831478
v 4.376103 3.660527 -14.798084
v 4.376103 4.066837 -14.798084
v 4.376103 4.066837 -14.782461
v -4.383650 4.066837 -14.782461
v 4.376103 4.473146 -14.782461
v -4.383650 4.473146 -14.782461
v 4.376103 4.473146 -14.422462
v -4.383650 4.473146 -14.422462
v -4.383650 4.066837 -14.471479
v -4.383650 4.473146 -14.471479
v 4.376103 4.066837 -14.438086
v 4.376103 4.473146 -14.438086
v 4.376103 4.473146 -14.422462
v -4.383650 4.473146 -14.422462
v 4.376103 4.879456 -14.422462
v -4.383650 4.879456 -14.422462
v 4.376103 4.879456 -14.062464
v -4.383650 4.879456 -14.062464
v -4.383650 4.473146 -14.111481
v -4.383650 4.879456 -14.111481
v 4.376103 4.473146 -14.078087
v 4.376103 4.879456 -14.078087
v 4.376103 4.879456 -14.062464
v -4.383650 4.879456 -14.062464
v 4.376103 5.285766 -14.062464
v -4.383650 5.285766 -14.062464
v 4.376103 5.285766 -13.702465
v -4.383650 5.285766 -13.702465
v -4.383650 4.879456 -13.751482
v -4.383650 5.285766 -13.751482
v 4.376103 4.879456 -13.718088
v 4.376103 5.285766 -13.718088
v 4.376103 5.285766 -13.702465
v -4.383650 5.285766 -13.702465
v 4.376103 5.692075 -13.702465
v -4.383650 5.692075 -13.702465
v 4.376103 5.692075 -13.342466
v -4.383650 5.692075 -13.342466
v -4.383650 5.285766 -13.391483
v -4.383650 5.692075 -13.391483
v 4.376103 5.285766 -13.358089
v 4.376103 5.692075 -13.358089
v 4.376103 5.692075 -13.342466
v -4.383650 5.692075 -13.342466
v 4.376103 6.098385 -13.342466
v -4.383650 6.098385 -13.342466
v 4.376103 6.098385 -12.982468
v -4.383650 6.098385 -12.982468
v -4.383650 5.692075 -13.031485
v -4.383650 6.098385 -13.031485
v 4.376103 5.692075 -12.998091
v 4.376103 6.098385 -12.998091
vn -0.0000 -0.0000 1.0000
vn -0.0000 1.0000 -0.0000
vn -1.0000 -0.0000 -0.0000
vn 1.0000 -0.0000 -0.0000
vn -0.0000 -0.0000 -1.0000
vt 0.000000 0.000000
vt 1.000000 0.000000
vt 1.000000 1.000000
vt 0.000000 1.000000
s 1
usemtl Material.001
f 2/1/1 1/2/1 3/3/1 4/4/1
f 4/1/2 3/2/2 5/3/2 6/4/2
f 2/1/3 4/1/3 8/1/3 7/1/3
f 3/1/4 1/1/4 9/1/4 10/1/4
f 12/1/1 11/2/1 13/3/1 14/4/1
f 14/1/2 13/2/2 15/3/2 16/4/2
f 12/1/3 14/1/3 18/1/3 17/1/3
f 13/1/4 11/1/4 19/1/4 20/1/4
f 22/1/1 21/2/1 23/3/1 24/4/1
f 24/1/2 23/2/2 25/3/2 26/4/2
f 22/1/3 24/1/3 28/1/3 27/1/3
f 23/1/4 21/1/4 29/1/4 30/1/4
f 32/1/1 31/2/1 33/3/1 34/4/1
f 34/1/2 33/2/2 35/3/2 36/4/2
f 32/1/3 34/1/3 38/1/3 37/1/3
f 33/1/4 31/1/4 39/1/4 40/1/4
f 42/1/1 41/2/1 43/3/1 44/4/1
f 44/1/2 43/2/2 45/3/2 46/4/2
f 42/1/3 44/1/3 48/1/3 47/1/3
f 43/1/4 41/1/4 49/1/4 50/1/4
f 52/1/1 51/2/1 53/3/1 54/4/1
f 54/1/2 53/2/2 55/3/2 56/4/2
f 52/1/3 54/1/3 58/1/3 57/1/3
f 53/1/4 51/1/4 59/1/4 60/1/4
f 62/1/1 61/2/1 63/3/1 64/4/1
f 64/1/2 63/2/2 65/3/2 66/4/2
f 62/1/3 64/1/3 68/1/3 67/1/3
f 63/1/4 61/1/4 69/1/4 70/1/4
f 72/1/1 71/2/1 73/3/1 74/4/1
f 74/1/2 73/2/2 75/3/2 76/4/2
f 72/1/3 74/1/3 78/1/3 77/1/3
f 73/1/4 71/1/4 79/1/4 80/1/4
f 82/1/1 81/2/1 83/3/1 84/4/1
f 84/1/2 83/2/2 85/3/2 86/4/2
f 82/1/3 84/1/3 88/1/3 87/1/3
f 83/1/4 81/1/4 89/1/4 90/1/4
f 92/1/1 91/2/1 93/3/1 94/4/1
f 94/1/2 93/2/2 95/3/2 96/4/2
f 92/1/3 94/1/3 98/1/3 97/1/3
f 93/1/4 91/1/4 99/1/4 100/1/4
f 102/1/1 101/2/1 103/3/1 104/4/1
f 104/1/2 103/2/2 105/3/2 106/4/2
f 102/1/3 104/1/3 108/1/3 107/1/3
f 103/1/4 101/1/4 109/1/4 110/1/4
f 112/1/1 111/2/1 113/3/1 114/4/1
f 114/1/2 113/2/2 115/3/2 116/4/2
f 112/1/3 114/1/3 118/1/3 117/1/3
f 113/1/4 111/1/4 119/1/4 120/1/4
f 122/1/1 121/2/1 123/3/1 124/4/1
f 124/1/2 123/2/2 125/3/2 126/4/2
f 122/1/3 124/1/3 128/1/3 127/1/3
f 123/1/4 121/1/4 129/1/4 130/1/4
f 132/1/1 131/2/1 133/3/1 134/4/1
f 134/1/2 133/2/2 135/3/2 136/4/2
f 132/1/3 134/1/3 138/1/3 137/1/3
f 133/1/4 131/1/4 139/1/4 140/1/4
f 142/1/1 141/2/1 143/3/1 144/4/1
f 144/1/2 143/2/2 145/3/2 146/4/2
f 142/1/3 144/1/3 148/1/3 147/1/3
f 143/1/4 141/1/4 149/1/4 150/1/4
f 152/1/5 154/4/5 153/3/5 151/2/5
f 154/1/2 156/4/2 155/3/2 153/2/2
f 152/1/3 157/1/3 158/1/3 154/1/3
f 153/1/4 160/1/4 159/1/4 151/1/4
f 162/1/5 164/4/5 163/3/5 161/2/5
f 164/1/2 166/4/2 165/3/2 163/2/2
f 162/1/3 167/1/3 168/1/3 164/1/3
f 163/1/4 170/1/4 169/1/4 161/1/4
f 172/1/5 174/4/5 173/3/5 171/2/5
f 174/1/2 176/4/2 175/3/2 173/2/2
f 172/1/3 177/1/3 178/1/3 174/1/3
f 173/1/4 180/1/4 179/1/4 171/1/4
f 182/1/5 184/4/5 183/3/5 181/2/5
f 184/1/2 186/4/2 185/3/2 183/2/2
f 182/1/3 187/1/3 188/1/3 184/1/3
f 183/1/4 190/1/4 189/1/4 181/1/4
f 192/1/5 194/4/5 193/3/5 191/2/5
f 194/1/2 196/4/2 195/3/2 193/2/2
f 192/1/3 197/1/3 198/1/3 194/1/3
f 193/1/4 200/1/4 199/1/4 191/1/4
f 202/1/5 204/4/5 203/3/5 201/2/5
f 204/1/2 206/4/2 205/3/2 203/2/2
f 202/1/3 207/1/3 208/1/3 204/1/3
f 203/1/4 210/1/4 209/1/4 201/1/4
f 212/1/5 214/4/5 213/3/5 211/2/5
f 214/1/2 216/4/2 215/3/2 213/2/2
f 212/1/3 217/1/3 218/1/3 214/1/3
f 213/1/4 220/1/4 219/1/4 211/1/4
f 222/1/5 224/4/5 223/3/5 221/2/5
f 224/1/2 226/4/2 225/3/2 223/2/2
f 222/1/3 227/1/3 228/1/3 224/1/3
f 223/1/4 230/1/4 229/1/4 221/1/4
f 232/1/5 234/4/5 233/3/5 231/2/5
f 234/1/2 236/4/2 235/3/2 233/2/2
f 232/1/3 237/1/3 238/1/3 234/1/3
f 233/1/4 240/1/4 239/1/4 231/1/4
f 242/1/5 244/4/5 243/3/5 241/2/5
f 244/1/2 246/4/2 245/3/2 243/2/2
f 242/1/3 247/1/3 248/1/3 244/1/3
f 243/1/4 250/1/4 249/1/4 241/1/4
f 252/1/5 254/4/5 253/3/5 251/2/5
f 254/1/2 256/4/2 255/3/2 253/2/2
f 252/1/3 257/1/3 258/1/3 254/1/3
f 253/1/4 260/1/4 259/1/4 251/1/4
f 262/1/5 264/4/5 263/3/5 261/2/5
f 264/1/2 266/4/2 265/3/2 263/2/2
f 262/1/3 267/1/3 268/1/3 264/1/3
f 263/1/4 270/1/4 269/1/4 261/1/4
f 272/1/5 274/4/5 273/3/5 271/2/5
f 274/1/2 276/4/2 275/3/2 273/2/2
f 272/1/3 277/1/3 278/1/3 274/1/3
f 273/1/4 280/1/4 279/1/4 271/1/4
f 282/1/5 284/4/5 283/3/5 281/2/5
f 284/1/2 286/4/2 285/3/2 283/2/2
f 282/1/3 287/1/3 288/1/3 284/1/3
f 283/1/4 290/1/4 289/1/4 281/1/4
f 292/1/5 294/4/5 293/3/5 291/2/5
f 294/1/2 296/4/2 295/3/2 293/2/2
f 292/1/3 297/1/3 298/1/3 294/1/3
f 293/1/4 300/1/4 299/1/4 291/1/4
