# Blender 4.4.3
# www.blender.org
mtllib monticulo-14-Talud_2.mtl
o Talud_2
v -17.879942 3.213608 13.322780
v 17.879942 3.213608 13.322780
v 17.879942 3.213606 -13.322780
v -17.879942 3.213606 -13.322780
v -17.018774 4.502008 12.681101
v -17.018774 4.502006 -12.681101
v 17.018774 4.502006 -12.681101
v 17.018774 4.502008 12.681101
v -5.018069 4.502008 12.681101
v 5.018070 4.502008 12.681101
v 5.018070 3.213608 13.322780
v -5.018070 3.213608 13.322780
v -5.042814 3.213606 -13.322780
v 5.042814 3.213606 -13.322780
v 5.042813 4.502006 -12.681101
v -5.042814 4.502006 -12.681101
vn -0.8314 0.5557 -0.0000
vn -0.0000 0.4458 -0.8951
vn 0.8314 0.5557 -0.0000
vn -0.0000 0.4458 0.8951
vt 0.987464 0.388739
vt 0.716942 0.049516
vt 0.283058 0.049516
vt 0.109084 0.811745
vt 0.000000 0.000000
vt 1.000000 0.000000
vt 1.000000 1.000000
vt 0.000000 1.000000
s 1
usemtl Material.003
f 1/1/1 5/2/1 6/3/1 4/4/1
f 14/5/2 15/6/2 7/7/2 3/8/2
f 8/5/3 2/6/3 3/7/3 7/8/3
f 9/5/4 5/6/4 1/7/4 12/8/4
f 8/5/4 10/6/4 11/7/4 2/8/4
f 4/5/2 6/6/2 16/7/2 13/8/2
