# Blender 4.4.3
# www.blender.org
mtllib monticulo-14-tablero_2.mtl
o tablero_2
v -17.520790 4.502008 13.055164
v -17.520790 4.502006 -13.055164
v 17.520790 4.502006 -13.055164
v 17.520790 4.502008 13.055164
v 17.520790 6.102008 13.055164
v 17.520790 6.102006 -13.055164
v -17.520790 4.757689 -13.055164
v 17.520790 4.757689 -13.055164
v 17.520790 5.846323 -13.055164
v 17.520790 4.757691 13.055164
v 17.520790 5.846325 13.055164
v -17.520790 4.757691 13.055164
v -17.234842 6.102006 -13.055164
v 17.234842 6.102006 -13.055164
v 17.234842 6.102008 13.055164
v 17.234842 4.502006 -13.055164
v -17.234842 4.502006 -13.055164
v -17.234842 4.502008 13.055164
v 17.234842 4.502008 13.055164
v -17.234842 5.846325 13.055164
v 17.234842 5.846325 13.055164
v -17.234842 4.757691 13.055164
v 17.234842 4.757691 13.055164
v 17.234842 5.846323 -13.055164
v -17.234842 5.846323 -13.055164
v 17.234842 4.757689 -13.055164
v -17.234842 4.757689 -13.055164
v 17.520790 4.502008 12.757710
v 17.520790 4.502006 -12.757710
v -17.520790 4.502008 12.757710
v -17.520790 4.502006 -12.757710
v -17.520790 5.846323 -12.757710
v -17.520790 5.846325 12.757710
v -17.520790 4.757689 -12.757710
v -17.520790 4.757691 12.757710
v 17.520790 5.846323 -12.757710
v 17.520790 5.846325 12.757710
v 17.520790 4.757691 12.757710
v 17.520790 4.757689 -12.757710
v 17.234842 4.502006 -12.757710
v 17.234842 4.502008 12.757710
v -17.234842 4.502008 12.757710
v -17.234842 4.502006 -12.757710
v 17.234842 5.846325 12.905165
v 17.234842 4.757691 12.905165
v -17.370790 5.846323 -12.757710
v -17.242989 5.846325 12.757710
v -17.370790 4.757689 -12.757710
v -17.242989 4.757691 12.757710
v 17.234842 5.846323 -12.905165
v -17.234842 5.846323 -12.905165
v 17.234842 4.757689 -12.905165
v -17.234842 4.757689 -12.905165
v 17.370790 5.846323 -12.757710
v 17.370790 5.846325 12.757710
v 17.370790 4.757691 12.757710
v 17.370790 4.757689 -12.757710
v 5.034042 5.846325 13.055164
v -5.034042 5.846325 13.055164
v -5.034042 6.102008 13.055164
v 5.034042 6.102008 13.055164
v -5.034042 5.846323 -13.055164
v 5.034042 5.846323 -13.055164
v 5.034042 6.102006 -13.055164
v -5.034042 6.102006 -13.055164
v -5.034042 4.757691 13.055164
v 5.034042 4.757691 13.055164
v 5.034042 4.757689 -13.055164
v -5.034042 4.757689 -13.055164
v -5.034042 4.502006 -13.055164
v 5.034042 4.502006 -13.055164
v 5.034042 4.502008 13.055164
v -5.034042 4.502008 13.055164
v 5.034042 4.502008 12.757710
v -5.034042 4.502008 12.757710
v -5.034042 4.502006 -12.757710
v 5.034042 4.502006 -12.757710
v -5.034042 5.846325 12.905165
v 5.034042 5.846325 12.905165
v 5.034042 4.757691 12.905165
v -5.034042 4.757691 12.905165
v 5.034042 5.846323 -12.905165
v -5.034042 5.846323 -12.905165
v -5.034042 4.757689 -12.905165
v 5.034042 4.757689 -12.905165
v -17.520790 5.846323 -13.055164
v -17.520420 6.102008 13.055164
v -17.520790 5.846325 13.055164
v -17.520790 5.846323 -13.055011
v -17.520420 6.102006 -13.055011
vn -0.0000 -0.0000 -1.0000
vn -0.0000 -0.0000 1.0000
vn -0.0000 -1.0000 -0.0000
vn -1.0000 -0.0000 -0.0000
vn 1.0000 -0.0000 -0.0000
vn -0.0000 1.0000 -0.0000
vn -0.0003 -0.0000 -1.0000
vn -1.0000 -0.0000 0.0050
vn 1.0000 -0.0014 -0.0000
vn -0.0005 -0.0000 -1.0000
vn 0.0121 -0.0000 -0.9999
vn -0.9996 -0.0000 0.0274
vt 0.000000 0.000000
vt 1.000000 0.000000
vt 1.000000 1.000000
vt 0.000000 1.000000
vt 0.000000 0.011392
vt 0.008160 0.011392
vt 0.008160 0.000000
vt 1.000000 0.353957
vt 0.000000 0.353957
vt 0.643659 1.000000
vt 0.991840 1.000000
vt 0.991840 0.988608
vt 0.643659 0.988608
vt 0.500000 1.000000
vt 0.933013 0.750000
vt 0.933013 0.250000
vt 0.500000 0.000000
vt 0.066987 0.250000
vt 0.066987 0.750000
vt 1.000000 0.988608
vt 0.000000 0.988608
vt 0.008160 1.000000
vt 0.008160 0.988608
vt 1.000000 0.011392
vt 0.991840 0.011392
vt 0.991840 0.000000
vt 0.643659 0.000000
vt 0.356341 1.000000
vt 0.356341 0.988608
vt 0.000000 0.646043
vt 1.000000 0.646043
vt 0.356341 0.011392
vt 0.356341 0.000000
vt 0.643659 0.011392
s 1
usemtl Material.005
f 3/1/1 16/2/1 26/3/1 8/4/1
f 21/1/2 11/2/2 5/3/2 15/4/2
f 1/1/3 30/5/3 42/6/3 18/7/3
f 1/1/2 18/2/2 22/3/2 12/4/2
f 24/1/1 9/2/1 8/3/1 26/4/1
f 2/1/4 31/2/4 34/3/4 7/4/4
f 4/1/5 28/2/5 38/3/5 10/4/5
f 9/1/1 24/2/1 14/3/1 6/4/1
f 88/1/4 33/2/4 35/3/4 12/4/4
f 86/1/1 25/2/1 27/3/1 7/4/1
f 9/1/5 36/2/5 39/3/5 8/4/5
f 32/1/4 86/2/4 7/3/4 34/4/4
f 20/1/2 88/2/2 12/3/2 22/4/2
f 30/1/4 1/2/4 12/3/4 35/4/4
f 19/1/2 4/2/2 10/3/2 23/4/2
f 11/1/2 21/2/2 23/3/2 10/4/2
f 17/1/1 2/2/1 7/3/1 27/4/1
f 19/1/2 23/2/2 67/8/2 72/9/2
f 68/10/6 85/10/6 52/11/6 26/11/6
f 78/1/3 59/2/3 20/3/3 47/4/3
f 16/11/3 40/12/3 77/13/3 71/10/3
f 6/14/5 5/15/5 11/16/5 37/17/5 36/18/5 9/19/5
f 5/15/6 6/14/6 90/4/6 87/1/6
f 37/1/5 11/2/5 10/3/5 38/4/5
f 25/1/7 13/2/7 65/8/1 62/9/1
f 40/12/3 16/11/3 3/3/3 29/20/3
f 29/1/5 3/2/5 8/3/5 39/4/5
f 31/21/3 2/4/3 17/22/3 43/23/3
f 31/21/3 43/23/3 42/6/3 30/5/3
f 29/1/5 39/2/5 38/3/5 28/4/5
f 40/12/3 29/20/3 28/24/3 41/25/3
f 30/1/4 35/2/4 34/3/4 31/4/4
f 19/26/3 41/25/3 28/24/3 4/2/3
f 17/1/1 27/2/1 69/8/1 70/9/1
f 21/26/4 44/26/4 45/26/4 23/26/4
f 21/26/3 58/27/3 79/27/3 44/26/3
f 46/1/8 48/2/8 49/3/8 47/4/8
f 35/5/6 49/5/6 48/21/6 34/21/6
f 33/5/1 47/5/1 49/5/1 35/5/1
f 34/21/2 48/21/2 46/21/2 32/21/2
f 33/5/3 32/21/3 46/21/3 47/5/3
f 50/1/1 52/2/1 85/8/1 82/9/1
f 70/28/3 76/29/3 43/23/3 17/22/3
f 25/22/5 51/22/5 53/22/5 27/22/5
f 25/22/3 62/28/3 83/28/3 51/22/3
f 26/11/4 52/11/4 50/11/4 24/11/4
f 55/1/5 56/2/5 57/3/5 54/4/5
f 38/24/1 56/24/1 55/24/1 37/24/1
f 39/20/6 57/20/6 56/24/6 38/24/6
f 37/24/3 55/24/3 54/20/3 36/20/3
f 36/20/2 54/20/2 57/20/2 39/20/2
f 63/30/1 64/31/1 14/3/1 24/4/1
f 71/30/1 68/31/1 26/3/1 16/4/1
f 73/1/2 66/2/2 22/3/2 18/4/2
f 79/1/2 80/2/2 45/3/2 44/4/2
f 75/32/3 73/33/3 18/7/3 42/6/3
f 41/25/3 19/26/3 72/27/3 74/34/3
f 83/30/1 84/31/1 53/3/1 51/4/1
f 23/26/6 45/26/6 80/27/6 67/27/6
f 27/22/6 53/22/6 84/28/6 69/28/6
f 63/10/3 24/11/3 50/11/3 82/10/3
f 21/1/2 15/2/2 61/8/2 58/9/2
f 87/1/9 88/2/9 89/3/9 90/4/9
f 13/1/7 25/2/7 89/3/10 90/4/10
f 49/1/11 47/2/11 78/3/11 81/4/11
f 22/7/3 49/1/3 81/4/3 66/33/3
f 22/1/12 20/2/12 47/3/12 49/4/12
f 42/6/3 43/23/3 76/29/3 75/32/3
f 41/25/3 74/34/3 77/13/3 40/12/3
f 60/2/2 87/2/2 88/3/2 20/4/2 59/1/2
